<svg id="visual" viewBox="0 0 900 600" width="900" height="600" xmlns="http://www.w3.org/2000/svg" xmlns:xlink="http://www.w3.org/1999/xlink" version="1.1"><rect x="0" y="0" width="900" height="600" fill="#8cc524"></rect><defs><linearGradient id="grad1_0" x1="33.3%" y1="0%" x2="100%" y2="100%"><stop offset="20%" stop-color="#1a4f16" stop-opacity="1"></stop><stop offset="80%" stop-color="#1a4f16" stop-opacity="1"></stop></linearGradient></defs><defs><linearGradient id="grad1_1" x1="33.3%" y1="0%" x2="100%" y2="100%"><stop offset="20%" stop-color="#1a4f16" stop-opacity="1"></stop><stop offset="80%" stop-color="#316b1d" stop-opacity="1"></stop></linearGradient></defs><defs><linearGradient id="grad1_2" x1="33.3%" y1="0%" x2="100%" y2="100%"><stop offset="20%" stop-color="#4c8922" stop-opacity="1"></stop><stop offset="80%" stop-color="#316b1d" stop-opacity="1"></stop></linearGradient></defs><defs><linearGradient id="grad1_3" x1="33.3%" y1="0%" x2="100%" y2="100%"><stop offset="20%" stop-color="#4c8922" stop-opacity="1"></stop><stop offset="80%" stop-color="#6aa724" stop-opacity="1"></stop></linearGradient></defs><defs><linearGradient id="grad1_4" x1="33.3%" y1="0%" x2="100%" y2="100%"><stop offset="20%" stop-color="#8cc524" stop-opacity="1"></stop><stop offset="80%" stop-color="#6aa724" stop-opacity="1"></stop></linearGradient></defs><defs><linearGradient id="grad2_0" x1="0%" y1="0%" x2="66.7%" y2="100%"><stop offset="20%" stop-color="#1a4f16" stop-opacity="1"></stop><stop offset="80%" stop-color="#1a4f16" stop-opacity="1"></stop></linearGradient></defs><defs><linearGradient id="grad2_1" x1="0%" y1="0%" x2="66.7%" y2="100%"><stop offset="20%" stop-color="#316b1d" stop-opacity="1"></stop><stop offset="80%" stop-color="#1a4f16" stop-opacity="1"></stop></linearGradient></defs><defs><linearGradient id="grad2_2" x1="0%" y1="0%" x2="66.7%" y2="100%"><stop offset="20%" stop-color="#316b1d" stop-opacity="1"></stop><stop offset="80%" stop-color="#4c8922" stop-opacity="1"></stop></linearGradient></defs><defs><linearGradient id="grad2_3" x1="0%" y1="0%" x2="66.7%" y2="100%"><stop offset="20%" stop-color="#6aa724" stop-opacity="1"></stop><stop offset="80%" stop-color="#4c8922" stop-opacity="1"></stop></linearGradient></defs><defs><linearGradient id="grad2_4" x1="0%" y1="0%" x2="66.7%" y2="100%"><stop offset="20%" stop-color="#6aa724" stop-opacity="1"></stop><stop offset="80%" stop-color="#8cc524" stop-opacity="1"></stop></linearGradient></defs><g transform="translate(900, 0)"><path d="M0 459.7C-58.8 450.3 -117.6 440.9 -174.1 420.4C-230.6 399.9 -284.7 368.3 -325.1 325.1C-365.4 281.8 -391.9 226.8 -412.1 170.7C-432.2 114.5 -445.9 57.3 -459.7 0L0 0Z" fill="#7bb624"></path><path d="M0 367.8C-47.1 360.2 -94.1 352.7 -139.3 336.3C-184.5 319.9 -227.8 294.7 -260 260C-292.3 225.4 -313.5 181.4 -329.6 136.5C-345.8 91.6 -356.8 45.8 -367.8 0L0 0Z" fill="#5b9823"></path><path d="M0 275.8C-35.3 270.2 -70.6 264.5 -104.5 252.2C-138.4 239.9 -170.8 221 -195 195C-219.2 169.1 -235.1 136.1 -247.2 102.4C-259.3 68.7 -267.6 34.4 -275.8 0L0 0Z" fill="#3e7a1f"></path><path d="M0 183.9C-23.5 180.1 -47.1 176.3 -69.6 168.1C-92.2 160 -113.9 147.3 -130 130C-146.2 112.7 -156.8 90.7 -164.8 68.3C-172.9 45.8 -178.4 22.9 -183.9 0L0 0Z" fill="#255d1a"></path><path d="M0 91.9C-11.8 90.1 -23.5 88.2 -34.8 84.1C-46.1 80 -56.9 73.7 -65 65C-73.1 56.4 -78.4 45.4 -82.4 34.1C-86.4 22.9 -89.2 11.5 -91.9 0L0 0Z" fill="#1a4f16"></path></g><g transform="translate(0, 600)"><path d="M0 -459.7C63 -456.7 126 -453.6 175.9 -424.7C225.8 -395.8 262.6 -341.1 292.7 -292.7C322.9 -244.4 346.5 -202.3 373.2 -154.6C400 -106.9 429.8 -53.4 459.7 0L0 0Z" fill="#7bb624"></path><path d="M0 -367.8C50.4 -365.3 100.8 -362.9 140.7 -339.8C180.6 -316.7 210.1 -272.9 234.2 -234.2C258.3 -195.5 277.2 -161.9 298.6 -123.7C320 -85.5 343.9 -42.7 367.8 0L0 0Z" fill="#5b9823"></path><path d="M0 -275.8C37.8 -274 75.6 -272.2 105.6 -254.8C135.5 -237.5 157.5 -204.7 175.6 -175.6C193.8 -146.6 207.9 -121.4 223.9 -92.8C240 -64.1 257.9 -32.1 275.8 0L0 0Z" fill="#3e7a1f"></path><path d="M0 -183.9C25.2 -182.7 50.4 -181.4 70.4 -169.9C90.3 -158.3 105 -136.4 117.1 -117.1C129.2 -97.7 138.6 -80.9 149.3 -61.8C160 -42.7 171.9 -21.4 183.9 0L0 0Z" fill="#255d1a"></path><path d="M0 -91.9C12.6 -91.3 25.2 -90.7 35.2 -84.9C45.2 -79.2 52.5 -68.2 58.5 -58.5C64.6 -48.9 69.3 -40.5 74.6 -30.9C80 -21.4 86 -10.7 91.9 0L0 0Z" fill="#1a4f16"></path></g></svg>