<?xml version="1.0" encoding="UTF-8"?>
<svg version="1.1" xmlns="http://www.w3.org/2000/svg" width="500" height="500">
<path d="M0 0 C1.83304687 0.00845947 1.83304687 0.00845947 3.703125 0.01708984 C32.58024287 0.40085154 61.0399492 9.01298113 84.375 26.3125 C85.13941406 26.85519531 85.90382813 27.39789063 86.69140625 27.95703125 C100.53571727 38.3344082 113.30340518 51.55035665 122.375 66.3125 C122.76478027 66.94365723 123.15456055 67.57481445 123.55615234 68.22509766 C130.9096582 80.31415406 136.24099729 92.83194817 140.125 106.4375 C140.42325684 107.47463135 140.42325684 107.47463135 140.72753906 108.53271484 C143.91047117 120.27353044 144.7529336 131.9350546 144.6875 144.0625 C144.68476578 145.11765305 144.68476578 145.11765305 144.68197632 146.19412231 C144.63551029 156.85663804 144.07515168 166.94740162 141.375 177.3125 C141.20871094 177.98667969 141.04242188 178.66085937 140.87109375 179.35546875 C132.06825542 214.63202828 109.44927375 247.05146804 78.375 266.3125 C44.3215878 286.7417324 4.73973895 293.84048256 -34.12353516 284.7265625 C-59.45791134 278.36720718 -80.4381817 265.74041924 -99.625 248.3125 C-100.34945312 247.67183594 -101.07390625 247.03117188 -101.8203125 246.37109375 C-128.6214674 221.30808907 -142.49644453 184.10145944 -143.8125 147.9921875 C-144.69275243 108.04614874 -129.92864444 72.21653568 -102.625 43.3125 C-101.93019531 42.56484375 -101.23539063 41.8171875 -100.51953125 41.046875 C-80.88997662 20.59495287 -54.41477942 7.28469093 -26.625 2.3125 C-25.18157227 2.0486853 -25.18157227 2.0486853 -23.70898438 1.77954102 C-15.76742403 0.43218365 -8.04869731 -0.0393882 0 0 Z " fill="#668EDD" transform="translate(248.625,87.6875)"/>
<path d="M0 0 C0.66306152 0.04012207 1.32612305 0.08024414 2.00927734 0.12158203 C23.27138008 1.52661247 43.30411907 10.74051416 59 25 C59.62003906 25.53882813 60.24007812 26.07765625 60.87890625 26.6328125 C73.96256479 38.714706 82.40971313 55.74550369 86 73 C86.05953832 74.9991136 86.07837113 77.0015361 86 79 C79.77030871 76.65962596 72.42267477 73.61359636 68.609375 67.92578125 C67.98488699 66.4518837 67.406396 64.95779781 66.87109375 63.44921875 C60.503282 45.5451023 45.60742487 31.48906316 29 23 C17.67712104 18.20187131 5.97080334 15.60872428 -6.3125 15.6875 C-7.22894287 15.69241455 -8.14538574 15.6973291 -9.08959961 15.70239258 C-30.25242969 16.06614329 -48.09070062 25.33960378 -63 40 C-63.69996094 40.68707031 -64.39992187 41.37414062 -65.12109375 42.08203125 C-71.71683581 49.01206043 -77.08315223 57.59903378 -80.28515625 66.62109375 C-82.48606205 70.95773046 -85.0126908 72.54903759 -89.125 74.9375 C-89.77082031 75.33517578 -90.41664063 75.73285156 -91.08203125 76.14257812 C-95.77390813 79 -95.77390813 79 -97 79 C-98.31404681 62.57441487 -89.21975295 46.23422348 -79 34 C-70.20076121 23.92826491 -60.7137169 16.41158293 -49 10 C-48.1028125 9.48953125 -47.205625 8.9790625 -46.28125 8.453125 C-32.20527883 1.23696257 -15.6213402 -1.15559271 0 0 Z " fill="#F8FBFD" transform="translate(256,133)"/>
<path d="M0 0 C0.66 0.33 1.32 0.66 2 1 C2.06945844 10.59655304 2.12279 20.19301977 2.15543652 29.78976917 C2.17110387 34.24575989 2.19236152 38.70157885 2.22631836 43.1574707 C2.25887388 47.4562976 2.27684495 51.75495912 2.28463173 56.05389977 C2.29018211 57.69539685 2.30102049 59.33688471 2.31719017 60.97831154 C2.33891431 63.2745596 2.3419691 65.57012108 2.34057617 67.86645508 C2.34723801 69.17439529 2.35389984 70.48233551 2.36076355 71.82991028 C2 75 2 75 0.70137024 76.94194031 C-1.76327746 78.47467218 -3.90021219 78.17593051 -6.68359375 77.69921875 C-15.4203615 75.06198194 -21.8585521 69.34658681 -26.40234375 61.61328125 C-32.41716509 50.22870637 -34.1699929 37.23571302 -30.9375 24.625 C-27.35678696 14.63934954 -20.19060563 6.72498925 -11 1.625 C-7.25848423 -0.12929047 -4.14626776 -0.41462678 0 0 Z " fill="#FBFDFD" transform="translate(186,213)"/>
<path d="M0 0 C8.32503205 -0.90489479 14.85820443 3.05311632 21.25 8.125 C27.96782714 14.33967005 32.83408713 23.92651987 33.3359375 33.1015625 C33.59741753 46.14970312 31.99625445 56.94674438 23 67 C21.824375 68.3303125 21.824375 68.3303125 20.625 69.6875 C14.42267985 75.1514487 9.35154339 77.78734496 1 78 C-0.68364688 73.59266476 -1.24869461 69.95600828 -1.24291992 65.24780273 C-1.24481827 64.60146881 -1.24671661 63.95513489 -1.24867249 63.28921509 C-1.25235196 61.1705479 -1.24171697 59.05223003 -1.23046875 56.93359375 C-1.22927523 55.45199117 -1.22882415 53.97038783 -1.2290802 52.48878479 C-1.22752023 49.39131905 -1.2192675 46.29396968 -1.20581055 43.1965332 C-1.18880664 39.23330025 -1.18499697 35.27019476 -1.18575573 31.30692959 C-1.18548338 28.25025728 -1.17999196 25.19361263 -1.17275429 22.13694954 C-1.16958069 20.67576367 -1.16760328 19.21457467 -1.16686058 17.75338554 C-1.16468391 15.70980401 -1.15591167 13.6663555 -1.14526367 11.62280273 C-1.14145187 10.46175522 -1.13764008 9.3007077 -1.13371277 8.10447693 C-1.01226774 5.28482629 -0.64519079 2.74161467 0 0 Z " fill="#FAFCFE" transform="translate(316,213)"/>
<path d="M0 0 C3.39597531 3.39597531 3.1258622 6.95868068 3.13371277 11.59700012 C3.13797775 12.73670761 3.14224274 13.8764151 3.14663696 15.05065918 C3.14618378 16.2969812 3.14573059 17.54330322 3.14526367 18.82739258 C3.14862228 20.14321823 3.1519809 21.45904388 3.15544128 22.81474304 C3.16427184 26.4223038 3.16661903 30.02984083 3.16725707 33.63741136 C3.16796822 35.89284082 3.17010378 38.14826427 3.17275429 40.40369225 C3.18200524 48.27670041 3.18608957 56.14969166 3.18530273 64.02270508 C3.1847023 71.35376854 3.19524795 78.68475833 3.2110464 86.01580316 C3.22413746 92.31573228 3.22948596 98.61563737 3.22884732 104.91557997 C3.22859276 108.67558138 3.23142101 112.43551733 3.24202538 116.19550514 C3.25173252 119.7339856 3.25176769 123.27233839 3.24450874 126.81082344 C3.2429706 128.72147365 3.25129176 130.63212391 3.25994873 132.54275513 C3.23849857 138.41435713 3.0372717 143.46829646 1 149 C-2.3125 149.25 -2.3125 149.25 -6 149 C-8.27573596 146.8064258 -8.94361392 145.416312 -9.36914349 142.27452469 C-9.36637811 141.22368069 -9.36361273 140.17283669 -9.36076355 139.09014893 C-9.36488754 137.88142624 -9.36901154 136.67270355 -9.3732605 135.42735291 C-9.36264387 134.0912148 -9.35173945 132.75507896 -9.34057617 131.41894531 C-9.33972979 130.00950641 -9.34020525 128.60006618 -9.34190369 127.19062805 C-9.34276465 123.36649081 -9.32512263 119.54263569 -9.30418181 115.71856403 C-9.28543187 111.72138714 -9.2836659 107.72420383 -9.28010559 103.72698975 C-9.27078017 96.15866835 -9.24615969 88.59047691 -9.21605712 81.02221274 C-9.18252856 72.40561545 -9.16603099 63.78901195 -9.15097082 55.17236567 C-9.11961055 37.44817009 -9.06684041 19.72409549 -9 2 C-5.78776766 0.2776967 -3.68495988 -0.38789051 0 0 Z " fill="#F3F7FD" transform="translate(254,175)"/>
<path d="M0 0 C1.670625 0.4021875 1.670625 0.4021875 3.375 0.8125 C4.86220364 3.78690728 4.61554889 6.85395709 4.69140625 10.12109375 C4.72298576 11.27573624 4.72298576 11.27573624 4.75520325 12.45370483 C4.82299225 15.05235267 4.8815674 17.65107072 4.9375 20.25 C4.95701721 21.14600922 4.97653442 22.04201843 4.99664307 22.96517944 C5.14966054 30.24723165 5.26466213 37.52969533 5.375 44.8125 C5.39516174 46.05688843 5.41532349 47.30127686 5.43609619 48.58337402 C5.55315471 55.9316281 5.64904872 63.27942729 5.70163059 70.62844563 C5.72554533 73.95646681 5.75984925 77.28379035 5.80960083 80.61154175 C5.86338383 84.37279768 5.8848631 88.1329434 5.8984375 91.89453125 C5.92106155 93.02611664 5.94368561 94.15770203 5.96699524 95.32357788 C5.94634329 103.03064623 5.94634329 103.03064623 3.01806641 107.0378418 C0.13001263 108.97699411 -1.2228584 109.29852023 -4.625 108.8125 C-6.27989593 105.90349166 -6.87649328 103.81743789 -6.88569641 100.47935486 C-6.89278122 99.61994797 -6.89986603 98.76054108 -6.90716553 97.87509155 C-6.90468811 96.94041046 -6.90221069 96.00572937 -6.8996582 95.04272461 C-6.90476913 94.05209518 -6.90988007 93.06146576 -6.91514587 92.04081726 C-6.92904959 88.76543137 -6.92808484 85.49025564 -6.92578125 82.21484375 C-6.92966704 79.94088157 -6.93400147 77.66692011 -6.93876648 75.39295959 C-6.94622986 70.62742763 -6.94593602 65.86196976 -6.94067383 61.09643555 C-6.93487156 54.98053672 -6.9518281 48.86493999 -6.9750185 42.74909115 C-6.98972578 38.05402342 -6.99063177 33.35902902 -6.98750877 28.66394234 C-6.98802325 26.40842654 -6.99328458 24.15290678 -7.00332069 21.89741325 C-7.0156128 18.74903378 -7.00893738 15.60125029 -6.99731445 12.45288086 C-7.00495819 11.51617554 -7.01260193 10.57947021 -7.02047729 9.61437988 C-7.01346298 8.75779282 -7.00644867 7.90120575 -6.9992218 7.0186615 C-6.99938954 6.27443908 -6.99955729 5.53021666 -6.99973011 4.76344204 C-6.16738169 0.43002054 -4.17739732 -0.21607227 0 0 Z " fill="#F9FCFE" transform="translate(275.625,208.1875)"/>
<path d="M0 0 C3 0.25 3 0.25 5 2.25 C5.91226098 5.00773288 6.12692355 7.53278301 6.13371277 10.42456055 C6.13797775 11.24886566 6.14224274 12.07317078 6.14663696 12.92245483 C6.14618378 13.81816193 6.14573059 14.71386902 6.14526367 15.63671875 C6.15030159 17.06173203 6.15030159 17.06173203 6.15544128 18.51553345 C6.16494129 21.65620226 6.16689377 24.79681772 6.16796875 27.9375 C6.17118143 30.11938499 6.17454551 32.30126976 6.17805481 34.4831543 C6.1840433 39.05615743 6.18589494 43.62914166 6.18530273 48.20214844 C6.185201 54.06677649 6.19886624 59.93128378 6.21607494 65.79588318 C6.22718205 70.30139729 6.22922236 74.80688205 6.22869301 79.31240845 C6.22987457 81.47499 6.23430618 83.63757228 6.24202538 85.80014038 C6.25180138 88.82127405 6.24895688 91.84214351 6.24291992 94.86328125 C6.24853943 95.75898834 6.25415894 96.65469543 6.25994873 97.57754517 C6.25575424 98.40185028 6.25155975 99.2261554 6.24723816 100.07543945 C6.24778293 100.78924271 6.24832769 101.50304596 6.24888897 102.23847961 C5.95096455 104.64630442 5.32108708 106.21694408 4 108.25 C1.0625 109.1875 1.0625 109.1875 -2 109.25 C-4.07605813 107.72206947 -4.89336339 106.81565605 -5.37473011 104.2622366 C-5.37456237 103.50066785 -5.37439463 102.7390991 -5.3742218 101.95445251 C-5.38123611 101.07814682 -5.38825043 100.20184113 -5.39547729 99.29898071 C-5.38783356 98.34043182 -5.38018982 97.38188293 -5.37231445 96.39428711 C-5.37596512 95.38269028 -5.37961578 94.37109344 -5.38337708 93.32884216 C-5.39149683 89.97817303 -5.37786128 86.62798529 -5.36328125 83.27734375 C-5.36276286 80.954717 -5.36327975 78.63208981 -5.36479187 76.3094635 C-5.36470208 71.43955952 -5.35425895 66.56982087 -5.33618164 61.69995117 C-5.31348178 55.44608852 -5.31295201 49.19246731 -5.31969929 42.93857479 C-5.32303453 38.1423171 -5.31641777 33.34611483 -5.30657005 28.54986763 C-5.30271103 26.2432948 -5.30157273 23.93671582 -5.3031559 21.6301403 C-5.30352519 18.41207927 -5.29094492 15.19433238 -5.2746582 11.97631836 C-5.27713562 11.01574524 -5.27961304 10.05517212 -5.28216553 9.06549072 C-5.27153831 7.75526192 -5.27153831 7.75526192 -5.26069641 6.41856384 C-5.25864354 5.65737212 -5.25659067 4.8961804 -5.25447559 4.11192226 C-4.78098302 0.64751784 -3.27401572 0.27283464 0 0 Z " fill="#F8FBFD" transform="translate(228,207.75)"/>
<path d="M0 0 C2.71761324 0.97555347 3.71827985 1.57519076 5.4375 3.875 C5.82518005 6.68322754 5.82518005 6.68322754 5.84155273 10.13476562 C5.85423691 11.42620483 5.86692108 12.71764404 5.87998962 14.04821777 C5.87793833 15.45923014 5.87495043 16.87024141 5.87109375 18.28125 C5.87565411 19.72709397 5.88095925 21.17293578 5.88697815 22.61877441 C5.89591359 25.64844573 5.89348103 28.6778535 5.88354492 31.70751953 C5.87204798 35.59175534 5.8922743 39.47508304 5.92146206 43.35919952 C5.93979907 46.34464299 5.93953682 49.32986775 5.93382454 52.31535339 C5.93367105 53.74750544 5.93973829 55.17967206 5.95211601 56.61177063 C5.96697589 58.61287466 5.95374492 60.61412796 5.93920898 62.61523438 C5.93895973 64.32374573 5.93895973 64.32374573 5.93870544 66.06677246 C5.4375 68.875 5.4375 68.875 3.60145569 70.77404785 C0.52337263 72.34007907 -1.31556733 71.8631969 -4.5625 70.875 C-6.92271618 67.33467573 -6.82492917 65.81325691 -6.85302734 61.61523438 C-6.86578705 60.32379517 -6.87854675 59.03235596 -6.89169312 57.70178223 C-6.89475009 56.290773 -6.89697821 54.87976178 -6.8984375 53.46875 C-6.90486375 52.02290717 -6.91159198 50.57706566 -6.91860962 49.13122559 C-6.93058311 46.10161319 -6.93429026 43.07211485 -6.93310547 40.04248047 C-6.93290199 36.15828636 -6.960233 32.27482154 -6.99464989 28.39080048 C-7.01687165 25.40538159 -7.02094452 22.42013974 -7.01988602 19.43464661 C-7.02224801 18.00248189 -7.03110521 16.57031274 -7.04655075 15.13822937 C-7.06611634 13.13717035 -7.05787454 11.13589758 -7.04833984 9.13476562 C-7.05118988 7.99575806 -7.05403992 6.85675049 -7.05697632 5.68322754 C-6.5625 2.875 -6.5625 2.875 -4.69229126 0.97595215 C-2.5625 -0.125 -2.5625 -0.125 0 0 Z " fill="#F6FBFD" transform="translate(205.5625,231.125)"/>
<path d="M0 0 C2.34463103 3.51694654 2.26213478 4.98748812 2.29052734 9.15209961 C2.3096669 11.05438576 2.3096669 11.05438576 2.32919312 12.99510193 C2.33225043 14.38084765 2.33447837 15.76659542 2.3359375 17.15234375 C2.34236452 18.57337072 2.34909281 19.99439635 2.35610962 21.41542053 C2.3680839 24.39375883 2.37179026 27.37198112 2.37060547 30.3503418 C2.37040217 34.16494123 2.39771373 37.97879655 2.43214989 41.79321957 C2.45439728 44.72806712 2.45844371 47.66273491 2.45738602 50.59765816 C2.45974489 52.00387705 2.46858464 53.41010068 2.48405075 54.8162365 C2.50366467 56.78356194 2.495362 58.75110569 2.48583984 60.71850586 C2.48868988 61.83752792 2.49153992 62.95654999 2.49447632 64.10948181 C1.88634619 67.6643764 0.86580907 68.86705451 -2 71 C-5.125 71.0625 -5.125 71.0625 -8 70 C-9.98495975 66.27251256 -10.25252086 63.07385688 -10.25878906 58.89624023 C-10.26509338 57.68826279 -10.27139771 56.48028534 -10.27789307 55.23570251 C-10.2738446 53.93975662 -10.26979614 52.64381073 -10.265625 51.30859375 C-10.26697336 49.95768667 -10.26891531 48.60678006 -10.27142334 47.25587463 C-10.27436558 44.43070841 -10.27010537 41.60566901 -10.26074219 38.78051758 C-10.2493371 35.16347655 -10.2559193 31.54673202 -10.26788712 27.92970181 C-10.27512076 25.14241815 -10.27281109 22.35520457 -10.26763153 19.56791878 C-10.26565343 17.58706087 -10.27171466 15.60620021 -10.27789307 13.62535095 C-10.27158875 12.42052567 -10.26528442 11.21570038 -10.25878906 9.97436523 C-10.25719788 8.91467026 -10.25560669 7.85497528 -10.25396729 6.76316833 C-9.99729998 3.97062376 -9.53026067 2.33108474 -8 0 C-5.06791253 -1.46604374 -3.11702298 -0.77925574 0 0 Z " fill="#F9FBFD" transform="translate(302,232)"/>
<path d="M0 0 C-0.65877548 4.3479182 -2.27464565 7.97417319 -4 12 C-7.01812881 23.05287712 -6.0750484 37.42427915 -2 48 C-8.77929942 45.70528868 -12.25828616 40.80921588 -15.9375 34.875 C-18.27593688 28.407298 -18.26889915 20.54714989 -15.96875 14.1171875 C-13.05242794 8.81920242 -6.68584714 0 0 0 Z " fill="#F3F0F8" transform="translate(151,225)"/>
<path d="M0 0 C4.68045769 1.26480576 7.3724742 2.8476244 10.75 6.3125 C11.50796875 7.07175781 12.2659375 7.83101562 13.046875 8.61328125 C17.54183598 14.10612356 17.49341672 19.54300671 17.37109375 26.421875 C16.48175104 34.99701101 12.25420362 40.43915034 5.76953125 45.8203125 C4 47 4 47 2 47 C2.2165625 46.35417969 2.433125 45.70835937 2.65625 45.04296875 C6.34751164 32.55078236 6.9949597 18.2071942 2 6 C1.608125 4.80375 1.21625 3.6075 0.8125 2.375 C0.544375 1.59125 0.27625 0.8075 0 0 Z " fill="#F7FBFD" transform="translate(352,226)"/>
<path d="M0 0 C0.33 0.66 0.66 1.32 1 2 C2.32 2.66 3.64 3.32 5 4 C4.67 10.27 4.34 16.54 4 23 C3.01 23 2.02 23 1 23 C0.34 23.66 -0.32 24.32 -1 25 C-1.1546875 24.0409375 -1.1546875 24.0409375 -1.3125 23.0625 C-1.539375 22.381875 -1.76625 21.70125 -2 21 C-2.99 20.67 -3.98 20.34 -5 20 C-5.86140345 6.02612175 -5.86140345 6.02612175 -2.5 2.125 C-1.2625 1.073125 -1.2625 1.073125 0 0 Z " fill="#FAF3F5" transform="translate(139,236)"/>
<path d="M0 0 C2 4 2 4 2 7 C5.29370921 8.64685461 8.93002032 8.45394166 12.56640625 8.71875 C15 9 15 9 16 10 C16.09425595 12.14743549 16.11742648 14.29801026 16.11352539 16.44750977 C16.11367142 17.12065216 16.11381744 17.79379456 16.1139679 18.48733521 C16.11326878 20.72205784 16.10547652 22.9566981 16.09765625 25.19140625 C16.09579206 26.73697362 16.09436816 28.28254157 16.09336853 29.82810974 C16.0895434 33.90357077 16.07971317 37.97899637 16.06866455 42.05444336 C16.05845032 46.21011882 16.05387089 50.36579999 16.04882812 54.52148438 C16.03809089 62.68100587 16.02101454 70.84049853 16 79 C15.67 79 15.34 79 15 79 C15 56.56 15 34.12 15 11 C7.45730567 10.57251002 7.45730567 10.57251002 1.5625 12.9375 C0.92441406 13.29714844 0.28632813 13.65679687 -0.37109375 14.02734375 C-0.90863281 14.34832031 -1.44617188 14.66929687 -2 15 C-2.99 15.495 -2.99 15.495 -4 16 C-4 15.01 -4 14.02 -4 13 C-3.01 13 -2.02 13 -1 13 C-1.33 12.01 -1.66 11.02 -2 10 C-2.66 9.67 -3.32 9.34 -4 9 C-4.33 8.01 -4.66 7.02 -5 6 C-5.99 7.485 -5.99 7.485 -7 9 C-8.32 8.34 -9.64 7.68 -11 7 C-7.37 4.69 -3.74 2.38 0 0 Z " fill="#7B9CDB" transform="translate(173,203)"/>
<path d="M0 0 C6.41022553 -0.48379061 6.41022553 -0.48379061 8.70918274 1.40203857 C10.72048288 5.4500788 10.39177102 9.35855541 10.34057617 13.81738281 C10.34101425 14.81283112 10.34145233 15.80827942 10.34190369 16.83389282 C10.33981385 20.12383647 10.31647311 23.41327038 10.29296875 26.703125 C10.2873735 28.98427044 10.28310307 31.26541949 10.28010559 33.54656982 C10.26865127 39.5504756 10.23917879 45.55416365 10.20599365 51.5579834 C10.17530557 57.68445897 10.16160294 63.81096972 10.14648438 69.9375 C10.11430986 81.95842899 10.06310621 93.97919639 10 106 C10.66 106.33 11.32 106.66 12 107 C10.92892883 107.86949317 9.84254056 108.72014205 8.75 109.5625 C8.14671875 110.03816406 7.5434375 110.51382813 6.921875 111.00390625 C5 112 5 112 2.765625 111.65234375 C1.89164063 111.32943359 1.89164063 111.32943359 1 111 C3 110 5 109 7 108 C7.90256422 105.29230735 8.12718437 103.731639 8.13371277 100.9524231 C8.13797775 100.13093781 8.14224274 99.30945251 8.14663696 98.46307373 C8.14618378 97.56534241 8.14573059 96.66761108 8.14526367 95.74267578 C8.14862228 94.79441925 8.1519809 93.84616272 8.15544128 92.86917114 C8.16495653 89.72787168 8.16689471 86.58662549 8.16796875 83.4453125 C8.171181 81.2643939 8.17454504 79.08347552 8.17805481 76.90255737 C8.18404756 72.32777405 8.18589457 67.75300963 8.18530273 63.17822266 C8.18520112 57.31478529 8.19885215 51.45146904 8.21607494 45.58806038 C8.22719106 41.08250369 8.22922206 36.57697632 8.22869301 32.07140732 C8.22987375 29.90965228 8.23430082 27.7478965 8.24202538 25.58615494 C8.25181704 22.56272134 8.24895035 19.53955107 8.24291992 16.51611328 C8.24853943 15.62243042 8.25415894 14.72874756 8.25994873 13.8079834 C8.25920114 7.6515779 8.25920114 7.6515779 6 2 C2.94727535 1.10169161 2.94727535 1.10169161 0 1 C0 0.67 0 0.34 0 0 Z " fill="#7494D2" transform="translate(225,207)"/>
<path d="M0 0 C-0.61875 0.2475 -1.2375 0.495 -1.875 0.75 C-4.43612361 2.2565433 -4.90008558 3.27936685 -6 6 C-6.29343521 8.0344788 -6.29343521 8.0344788 -6.24723816 10.18128967 C-6.25143265 11.00703995 -6.25562714 11.83279022 -6.25994873 12.68356323 C-6.25432922 13.58084137 -6.24870972 14.47811951 -6.24291992 15.40258789 C-6.24481827 16.35420303 -6.24671661 17.30581818 -6.24867249 18.28627014 C-6.25237723 21.43181598 -6.24168068 24.57713093 -6.23046875 27.72265625 C-6.22927672 29.90693637 -6.22882384 32.09121701 -6.2290802 34.27549744 C-6.22751588 38.8527243 -6.21922964 43.4298729 -6.20581055 48.00708008 C-6.1888108 53.88074632 -6.18499654 59.7543266 -6.18575573 65.62801456 C-6.18548411 70.13777999 -6.18000438 74.64752654 -6.17275429 79.15728569 C-6.16956744 81.32347915 -6.16760017 83.48967476 -6.16686058 85.65587044 C-6.16469778 88.67955308 -6.15595502 91.7031437 -6.14526367 94.72680664 C-6.14571686 95.62610901 -6.14617004 96.52541138 -6.14663696 97.45196533 C-6.14237198 98.27489578 -6.13810699 99.09782623 -6.13371277 99.94569397 C-6.13203692 100.66041902 -6.13036108 101.37514406 -6.12863445 102.11152744 C-6.06394479 104.22654221 -6.06394479 104.22654221 -5 107 C-4.071875 106.690625 -4.071875 106.690625 -3.125 106.375 C-2.42375 106.25125 -1.7225 106.1275 -1 106 C-0.34 106.66 0.32 107.32 1 108 C-2.465 108.495 -2.465 108.495 -6 109 C-7.65489593 106.09099166 -8.25149328 104.00493789 -8.26069641 100.66685486 C-8.26778122 99.80744797 -8.27486603 98.94804108 -8.28216553 98.06259155 C-8.27968811 97.12791046 -8.27721069 96.19322937 -8.2746582 95.23022461 C-8.27976913 94.23959518 -8.28488007 93.24896576 -8.29014587 92.22831726 C-8.30404959 88.95293137 -8.30308484 85.67775564 -8.30078125 82.40234375 C-8.30466704 80.12838157 -8.30900147 77.85442011 -8.31376648 75.58045959 C-8.32122986 70.81492763 -8.32093602 66.04946976 -8.31567383 61.28393555 C-8.30987156 55.16803672 -8.3268281 49.05243999 -8.3500185 42.93659115 C-8.36472578 38.24152342 -8.36563177 33.54652902 -8.36250877 28.85144234 C-8.36302325 26.59592654 -8.36828458 24.34040678 -8.37832069 22.08491325 C-8.3906128 18.93653378 -8.38393738 15.78875029 -8.37231445 12.64038086 C-8.37995819 11.70367554 -8.38760193 10.76697021 -8.39547729 9.80187988 C-8.38846298 8.94529282 -8.38144867 8.08870575 -8.3742218 7.2061615 C-8.37438954 6.46193908 -8.37455729 5.71771666 -8.37473011 4.95094204 C-7.45464872 0.16075993 -4.36495645 -0.35391539 0 0 Z " fill="#EFFCFF" transform="translate(277,208)"/>
<path d="M0 0 C0.33 0 0.66 0 1 0 C1 4.62 1 9.24 1 14 C0.34 14 -0.32 14 -1 14 C-1.33 27.86 -1.66 41.72 -2 56 C-2.33 56 -2.66 56 -3 56 C-5.03549079 37.13536217 -4.27647553 18.51622914 0 0 Z " fill="#6B88C7" transform="translate(109,196)"/>
<path d="M0 0 C5.95703125 -0.390625 5.95703125 -0.390625 8 0 C11.20251334 3.25869886 11.36738988 5.76835392 11.34057617 10.23730469 C11.34034958 11.49830994 11.34012299 12.75931519 11.33988953 14.05853271 C11.32457082 15.42965044 11.30892285 16.80076452 11.29296875 18.171875 C11.28737086 19.57862902 11.28310167 20.98538891 11.28010559 22.39215088 C11.26867185 26.08795424 11.2392178 29.78340179 11.20599365 33.47906494 C11.17526077 37.25292142 11.16159341 41.0268356 11.14648438 44.80078125 C11.11434629 52.20068273 11.06316824 59.60029144 11 67 C10.67 67 10.34 67 10 67 C9.505 35.32 9.505 35.32 9 3 C6.03 2.67 3.06 2.34 0 2 C0 1.34 0 0.68 0 0 Z " fill="#7491CA" transform="translate(201,230)"/>
<path d="M0 0 C1.32 0.33 2.64 0.66 4 1 C3.67 1.33 3.34 1.66 3 2 C2.87736612 3.56448383 2.82220478 5.13432772 2.79467773 6.70336914 C2.77473251 7.70433121 2.75478729 8.70529327 2.73423767 9.73658752 C2.71752518 10.8251152 2.70081268 11.91364288 2.68359375 13.03515625 C2.66281265 14.14354355 2.64203156 15.25193085 2.62062073 16.39390564 C2.55500377 19.95003808 2.49618404 23.50624703 2.4375 27.0625 C2.39432632 29.46680493 2.35071242 31.87110199 2.30664062 34.27539062 C2.19931008 40.18351185 2.09756669 46.09170991 2 52 C1.67 52 1.34 52 1 52 C0.30695138 34.65719546 -0.16683587 17.35863053 0 0 Z " fill="#88A2D8" transform="translate(197,232)"/>
<path d="M0 0 C3.99500618 1.3697164 6.80009492 3.25722422 10 6 C9.195625 6.2475 8.39125 6.495 7.5625 6.75 C4.828919 7.72238859 4.828919 7.72238859 4.1875 10.125 C4.125625 10.74375 4.06375 11.3625 4 12 C5.65 12.33 7.3 12.66 9 13 C9 14.65 9 16.3 9 18 C8.25556641 17.40251953 8.25556641 17.40251953 7.49609375 16.79296875 C3.14697367 13.40115025 -0.8350929 10.93684016 -6 9 C-6 8.67 -6 8.34 -6 8 C-4.906875 7.9175 -3.81375 7.835 -2.6875 7.75 C1.03276664 7.36310791 1.03276664 7.36310791 2.9375 4.9375 C3.288125 4.298125 3.63875 3.65875 4 3 C2.68 2.67 1.36 2.34 0 2 C0 1.34 0 0.68 0 0 Z " fill="#7796D7" transform="translate(329,205)"/>
<path d="M0 0 C1.11272613 2.78181534 1.0066813 3.97951069 0.0625 6.875 C-1.56436891 12.27324683 -1.46557954 17.84117751 -1.625 23.4375 C-1.66367188 24.55060547 -1.70234375 25.66371094 -1.7421875 26.81054688 C-1.83590966 29.54020476 -1.92162294 32.26986563 -2 35 C-1.34 35.33 -0.68 35.66 0 36 C-0.66 36.99 -1.32 37.98 -2 39 C-3.9357386 33.30075369 -4.34924371 28.18746487 -4.3125 22.1875 C-4.31048584 21.30400879 -4.30847168 20.42051758 -4.30639648 19.51025391 C-4.19762709 12.44871049 -3.17685455 6.3537091 0 0 Z " fill="#839DD4" transform="translate(149,230)"/>
<path d="M0 0 C0.66 0.33 1.32 0.66 2 1 C1.59007812 1.71285156 1.18015625 2.42570313 0.7578125 3.16015625 C-2.17963227 8.38149947 -4.69764346 13.13939559 -6 19 C-6.33 19 -6.66 19 -7 19 C-7 15.7 -7 12.4 -7 9 C-7.66 8.67 -8.32 8.34 -9 8 C-8.34 6.02 -7.68 4.04 -7 2 C-4.525 2.99 -4.525 2.99 -2 4 C-2 3.01 -2 2.02 -2 1 C-1.34 0.67 -0.68 0.34 0 0 Z " fill="#6B90D7" transform="translate(161,224)"/>
<path d="M0 0 C0.66 0.66 1.32 1.32 2 2 C-0.07723687 4.13126904 -2.16131164 6.25500368 -4.25 8.375 C-5.12978516 9.27992188 -5.12978516 9.27992188 -6.02734375 10.203125 C-6.60097656 10.78320312 -7.17460937 11.36328125 -7.765625 11.9609375 C-8.28930664 12.49509277 -8.81298828 13.02924805 -9.35253906 13.57958984 C-11.12546516 15.10817372 -12.87264893 16.0414787 -15 17 C-15 16.01 -15 15.02 -15 14 C-15.66 13.67 -16.32 13.34 -17 13 C-13.63576723 10.03947516 -10.30840713 9.07710178 -6 8 C-5.67 6.35 -5.34 4.7 -5 3 C-3.68 3 -2.36 3 -1 3 C-0.67 2.01 -0.34 1.02 0 0 Z " fill="#6689CD" transform="translate(353,328)"/>
<path d="M0 0 C-1.45745424 3.36335594 -3.31117854 5.54534005 -5.9140625 8.109375 C-6.67460937 8.86347656 -7.43515625 9.61757812 -8.21875 10.39453125 C-9.0128125 11.17183594 -9.806875 11.94914063 -10.625 12.75 C-11.42679688 13.54277344 -12.22859375 14.33554688 -13.0546875 15.15234375 C-15.03202846 17.10614493 -17.01388909 19.05512103 -19 21 C-19 13.79691107 -8.89410621 6.74377722 -4.13671875 1.90625 C-2 0 -2 0 0 0 Z " fill="#E8F4FD" transform="translate(193,153)"/>
<path d="M0 0 C0.91007812 0.00902344 1.82015625 0.01804688 2.7578125 0.02734375 C3.80582031 0.04474609 3.80582031 0.04474609 4.875 0.0625 C4.875 0.3925 4.875 0.7225 4.875 1.0625 C4.27026855 1.20349121 3.66553711 1.34448242 3.04248047 1.48974609 C0.27763255 2.1360948 -2.4861825 2.7867599 -5.25 3.4375 C-6.20132813 3.65921875 -7.15265625 3.8809375 -8.1328125 4.109375 C-12.88124604 5.23053292 -17.52747885 6.406154 -22.125 8.0625 C-22.455 7.4025 -22.785 6.7425 -23.125 6.0625 C-22.135 6.0625 -21.145 6.0625 -20.125 6.0625 C-20.125 5.4025 -20.125 4.7425 -20.125 4.0625 C-19.20976562 3.85753906 -18.29453125 3.65257812 -17.3515625 3.44140625 C-16.16304687 3.17199219 -14.97453125 2.90257812 -13.75 2.625 C-11.97496094 2.22474609 -11.97496094 2.22474609 -10.1640625 1.81640625 C-2.70231177 -0.03464502 -2.70231177 -0.03464502 0 0 Z " fill="#7997D4" transform="translate(234.125,132.9375)"/>
<path d="M0 0 C0.66 0.33 1.32 0.66 2 1 C1.51015625 1.84433594 1.0203125 2.68867188 0.515625 3.55859375 C-1.16872846 7.38311796 -1.34035905 9.91050154 -1.25 14.0625 C-1.23453125 15.24972656 -1.2190625 16.43695313 -1.203125 17.66015625 C-1.02745752 20.54853495 -0.65899873 23.1886264 0 26 C-0.66 26.33 -1.32 26.66 -2 27 C-4.82423458 22.97628355 -4.1084893 18.72714154 -3.8125 14.0625 C-3.78091797 13.26392578 -3.74933594 12.46535156 -3.71679688 11.64257812 C-3.45057768 6.98567139 -2.88418906 3.84817678 0 0 Z " fill="#7F9BD1" transform="translate(136,235)"/>
<path d="M0 0 C5.66153846 1.47692308 5.66153846 1.47692308 7.375 4.125 C7.684375 5.053125 7.684375 5.053125 8 6 C7.01 6 6.02 6 5 6 C5.33 9.3 5.66 12.6 6 16 C4.48485074 12.96970149 3.1380997 10.00935852 1.875 6.875 C1.52179688 6.00617188 1.16859375 5.13734375 0.8046875 4.2421875 C0 2 0 2 0 0 Z " fill="#E4F2FD" transform="translate(352,226)"/>
<path d="M0 0 C0.33 0 0.66 0 1 0 C1.63934602 5.11476819 -0.59466453 8.67254378 -3 13 C-3.66 13 -4.32 13 -5 13 C-5.33 14.32 -5.66 15.64 -6 17 C-7 14 -7 14 -5.56640625 10.64453125 C-4.90851193 9.3619696 -4.24010257 8.08475943 -3.5625 6.8125 C-3.22412109 6.15830078 -2.88574219 5.50410156 -2.53710938 4.83007812 C-1.70030902 3.21540701 -0.85130254 1.60707237 0 0 Z " fill="#6889C9" transform="translate(124,159)"/>
<path d="M0 0 C2.61724095 2.36797991 4.32861729 4.89600354 6 8 C6 8.66 6 9.32 6 10 C4.02 10 2.04 10 0 10 C0.66 8.68 1.32 7.36 2 6 C1.01 6 0.02 6 -1 6 C-0.67 4.02 -0.34 2.04 0 0 Z " fill="#6688CF" transform="translate(371,156)"/>
<path d="M0 0 C1.32 0 2.64 0 4 0 C4.9948683 2.98460489 5 4.89944265 5 8 C5.29749946 9.67343448 5.62127066 11.34305915 6 13 C5.01 13.495 5.01 13.495 4 14 C3.32968281 12.0429132 2.66385317 10.08428887 2 8.125 C1.62875 7.03445313 1.2575 5.94390625 0.875 4.8203125 C0 2 0 2 0 0 Z " fill="#6B89CA" transform="translate(111,272)"/>
<path d="M0 0 C1.65 1.32 3.3 2.64 5 4 C-1.43028541 5.32388229 -7.4294834 6.24794402 -14 6 C-10.79619983 3.86413322 -9.98060033 3.76867825 -6.3125 3.875 C-5.10013672 3.90207031 -5.10013672 3.90207031 -3.86328125 3.9296875 C-2.94095703 3.96449219 -2.94095703 3.96449219 -2 4 C-1.34 2.68 -0.68 1.36 0 0 Z " fill="#6288C6" transform="translate(276,369)"/>
<path d="M0 0 C0 0.66 0 1.32 0 2 C-2.8125 3.5625 -2.8125 3.5625 -6 5 C-6.99 4.67 -7.98 4.34 -9 4 C-8 1 -8 1 -6.1875 -0.25 C-3.66056586 -1.11637742 -2.47778006 -0.88492145 0 0 Z " fill="#638AD1" transform="translate(324,354)"/>
<path d="M0 0 C0.33 0.99 0.66 1.98 1 3 C-0.29048808 5.02790984 -1.63178949 7.02369593 -3 9 C-3.54846602 10.25915438 -4.07017642 11.5303525 -4.5625 12.8125 C-5.036875 13.864375 -5.51125 14.91625 -6 16 C-6.99 16.33 -7.98 16.66 -9 17 C-7.68925635 12.53817564 -5.92933989 9.00381243 -3.375 5.125 C-2.74335938 4.15820312 -2.11171875 3.19140625 -1.4609375 2.1953125 C-0.73777344 1.10863281 -0.73777344 1.10863281 0 0 Z " fill="#7E99D2" transform="translate(186,179)"/>
<path d="M0 0 C0.66 0 1.32 0 2 0 C1.54965877 1.62723299 1.08944646 3.25173664 0.625 4.875 C0.36976563 5.77992188 0.11453125 6.68484375 -0.1484375 7.6171875 C-1 10 -1 10 -3 12 C-3.25 4.375 -3.25 4.375 -1 1 C-0.67 0.67 -0.34 0.34 0 0 Z " fill="#6687C6" transform="translate(382,282)"/>
<path d="M0 0 C2.82960996 3.36858329 4.28575121 6.97524198 6 11 C6.66 11.66 7.32 12.32 8 13 C7.01 13.33 6.02 13.66 5 14 C0.65757571 9.65757571 0.2555331 5.86448454 0 0 Z " fill="#7895D7" transform="translate(321,192)"/>
<path d="M0 0 C1.8125 0.0625 1.8125 0.0625 4 1 C5.625 4.3125 5.625 4.3125 7 8 C7.61875 9.11375 7.61875 9.11375 8.25 10.25 C9 12 9 12 8 15 C6.85072616 13.06453884 5.70569358 11.12655872 4.5625 9.1875 C3.92441406 8.10855469 3.28632813 7.02960938 2.62890625 5.91796875 C1 3 1 3 0 0 Z " fill="#7895D1" transform="translate(326,170)"/>
<path d="M0 0 C0.66 0.33 1.32 0.66 2 1 C2.73075648 3.3140622 3.40138258 5.64828869 4 8 C0.08597051 6.73058503 -1.79072873 5.48832306 -4 2 C-3.01 2 -2.02 2 -1 2 C-0.67 1.34 -0.34 0.68 0 0 Z " fill="#E3EAFC" transform="translate(145,265)"/>
<path d="M0 0 C0.33 0 0.66 0 1 0 C1 6.27 1 12.54 1 19 C0.01 19.33 -0.98 19.66 -2 20 C-1.34 13.4 -0.68 6.8 0 0 Z " fill="#869FD4" transform="translate(349,246)"/>
<path d="M0 0 C0.66 0.33 1.32 0.66 2 1 C0.8553125 2.0828125 0.8553125 2.0828125 -0.3125 3.1875 C-2.7243116 5.71148888 -4.23411609 8.03010433 -6 11 C-6.99 11.66 -7.98 12.32 -9 13 C-7.47987323 7.59510481 -3.72614782 4.01507372 0 0 Z " fill="#E4F2FE" transform="translate(168,219)"/>
<path d="M0 0 C0.66 0 1.32 0 2 0 C4.14336161 3.4766338 4.21277626 6.21229195 4.125 10.25 C4.10695313 11.32765625 4.08890625 12.4053125 4.0703125 13.515625 C4.04710937 14.33546875 4.02390625 15.1553125 4 16 C3.67 16 3.34 16 3 16 C2.01 10.72 1.02 5.44 0 0 Z " fill="#7291D3" transform="translate(339,196)"/>
<path d="M0 0 C3.03852705 1.40976705 5.5939595 3.08870228 8.25 5.125 C8.95640625 5.66382812 9.6628125 6.20265625 10.390625 6.7578125 C10.92171875 7.16773437 11.4528125 7.57765625 12 8 C11.01 8.495 11.01 8.495 10 9 C7.6171875 7.890625 7.6171875 7.890625 4.875 6.25 C3.50988281 5.45335938 3.50988281 5.45335938 2.1171875 4.640625 C1.41851562 4.09921875 0.71984375 3.5578125 0 3 C0 2.01 0 1.02 0 0 Z " fill="#6B87C2" transform="translate(330,113)"/>
<path d="M0 0 C-1.65 1.98 -3.3 3.96 -5 6 C-7 2.25 -7 2.25 -7 0 C-3.86650268 -1.04449911 -3.01031744 -0.93423645 0 0 Z " fill="#6488CE" transform="translate(362,322)"/>
<path d="M0 0 C0.33 0 0.66 0 1 0 C1.66 2.97 2.32 5.94 3 9 C4.32 8.67 5.64 8.34 7 8 C7.66 8.66 8.32 9.32 9 10 C6.69 10.33 4.38 10.66 2 11 C-0.32590854 7.36576791 -0.16265833 4.22911669 0 0 Z " fill="#DCEBFD" transform="translate(269,306)"/>
<path d="M0 0 C-0.83144531 0.61488281 -0.83144531 0.61488281 -1.6796875 1.2421875 C-2.40414062 1.78101563 -3.12859375 2.31984375 -3.875 2.875 C-4.59429687 3.40867188 -5.31359375 3.94234375 -6.0546875 4.4921875 C-8.08252632 5.99873162 -8.08252632 5.99873162 -10 8 C-10 6.68 -10 5.36 -10 4 C-9.34 4 -8.68 4 -8 4 C-8 3.01 -8 2.02 -8 1 C-3.375 -1.125 -3.375 -1.125 0 0 Z " fill="#7B95D6" transform="translate(148,227)"/>
<path d="M0 0 C3.93673644 1.31224548 6.22719294 2.91910327 9 6 C8.67 6.99 8.34 7.98 8 9 C6.66368764 7.6905332 5.33102075 6.37734515 4 5.0625 C3.2575 4.33160156 2.515 3.60070312 1.75 2.84765625 C0 1 0 1 0 0 Z " fill="#6887C2" transform="translate(143,329)"/>
<path d="M0 0 C0.33 0 0.66 0 1 0 C1.3690205 12.66970387 1.3690205 12.66970387 -1 18 C-1.66 18 -2.32 18 -3 18 C-2.690625 17.071875 -2.38125 16.14375 -2.0625 15.1875 C-0.6216844 10.22128454 -0.35305964 5.13794694 0 0 Z " fill="#92ACDE" transform="translate(369,245)"/>
<path d="M0 0 C0.33 0.66 0.66 1.32 1 2 C-0.89404734 5.34243648 -1.94091591 5.97997149 -5.6875 7.25 C-7.3271875 7.62125 -7.3271875 7.62125 -9 8 C-6.14723863 5.06799526 -3.34920216 2.35684596 0 0 Z " fill="#7596D2" transform="translate(207,160)"/>
<path d="M0 0 C1.32 0.33 2.64 0.66 4 1 C-0.455 3.97 -0.455 3.97 -5 7 C-5.33 6.01 -5.66 5.02 -6 4 C-5.01 3.67 -4.02 3.34 -3 3 C-2.525625 2.46375 -2.05125 1.9275 -1.5625 1.375 C-0.7890625 0.694375 -0.7890625 0.694375 0 0 Z " fill="#6686C4" transform="translate(334,345)"/>
<path d="M0 0 C2.09350689 3.4019487 2.17942163 6.05272412 2 10 C-2.875 8.25 -2.875 8.25 -4 6 C-3.01 6 -2.02 6 -1 6 C-0.67 4.02 -0.34 2.04 0 0 Z " fill="#D0E3F8" transform="translate(340,202)"/>
<path d="M0 0 C4.00972202 3.67557852 6.45335415 7.18966896 9 12 C8.34 12 7.68 12 7 12 C4 8.53846154 4 8.53846154 4 6 C3.01 5.67 2.02 5.34 1 5 C0.67 3.35 0.34 1.7 0 0 Z " fill="#7E9AD2" transform="translate(309,174)"/>
<path d="M0 0 C0.66 0.33 1.32 0.66 2 1 C-1.17320782 4.53586014 -3.16743695 6.58578031 -8 7 C-5.42215154 4.35247996 -3.08351902 2.05567935 0 0 Z " fill="#6C87CA" transform="translate(168,112)"/>
<path d="M0 0 C1.98 0 3.96 0 6 0 C5.67 0.66 5.34 1.32 5 2 C6.32 2.66 7.64 3.32 9 4 C5.7 3.67 2.4 3.34 -1 3 C-0.67 2.01 -0.34 1.02 0 0 Z " fill="#6689CC" transform="translate(219,370)"/>
<path d="M0 0 C1.65 0.33 3.3 0.66 5 1 C3.37660195 2.70884005 1.70680947 4.37446717 0 6 C-0.66 6 -1.32 6 -2 6 C-1.34 4.02 -0.68 2.04 0 0 Z " fill="#E0EFFD" transform="translate(356,267)"/>
<path d="M0 0 C0.66 0 1.32 0 2 0 C1.67 1.65 1.34 3.3 1 5 C-1.31 5.33 -3.62 5.66 -6 6 C-4 4 -2 2 0 0 Z " fill="#DFE8FB" transform="translate(149,225)"/>
<path d="M0 0 C1.32 0.33 2.64 0.66 4 1 C3.67 1.33 3.34 1.66 3 2 C2.76472227 4.34987262 2.58613583 6.70556039 2.4375 9.0625 C2.35371094 10.35285156 2.26992187 11.64320313 2.18359375 12.97265625 C2.12300781 13.97167969 2.06242188 14.97070312 2 16 C1.67 16 1.34 16 1 16 C0.67 10.72 0.34 5.44 0 0 Z " fill="#7C98CF" transform="translate(197,232)"/>
<path d="M0 0 C0.33 0 0.66 0 1 0 C1.1953125 6.0546875 1.1953125 6.0546875 1 8 C0.34 8.66 -0.32 9.32 -1 10 C-1.66 10 -2.32 10 -3 10 C-2.01 6.7 -1.02 3.4 0 0 Z " fill="#6B85CB" transform="translate(116,175)"/>
<path d="M0 0 C1.32 0.66 2.64 1.32 4 2 C0.535 4.97 0.535 4.97 -3 8 C-3 7.01 -3 6.02 -3 5 C-2.34 5 -1.68 5 -1 5 C-1.33 4.01 -1.66 3.02 -2 2 C-1.34 1.34 -0.68 0.68 0 0 Z " fill="#7793D7" transform="translate(187,152)"/>
<path d="M0 0 C0.66 0 1.32 0 2 0 C1.67 2.64 1.34 5.28 1 8 C0.34 8 -0.32 8 -1 8 C-1.04241723 5.66705225 -1.04092937 3.33297433 -1 1 C-0.67 0.67 -0.34 0.34 0 0 Z " fill="#6B8DD0" transform="translate(157,204)"/>
<path d="M0 0 C0 3 0 3 -2.25 5.625 C-4.72881204 7.76579221 -5.83568489 8.64840943 -9 9 C-6.21000549 5.51250686 -3.74764169 2.49842779 0 0 Z " fill="#6C86C4" transform="translate(159,119)"/>
<path d="M0 0 C0.66 1.32 1.32 2.64 2 4 C-1 6 -1 6 -3.1875 5.625 C-3.785625 5.41875 -4.38375 5.2125 -5 5 C-4.360625 4.731875 -3.72125 4.46375 -3.0625 4.1875 C-0.66868314 3.11332248 -0.66868314 3.11332248 0 0 Z " fill="#7B96D8" transform="translate(338,280)"/>
<path d="M0 0 C0.66 0.33 1.32 0.66 2 1 C0.35 3.64 -1.3 6.28 -3 9 C-3.33 7.68 -3.66 6.36 -4 5 C-3.34 5 -2.68 5 -2 5 C-2 3.68 -2 2.36 -2 1 C-1.34 0.67 -0.68 0.34 0 0 Z " fill="#7899D2" transform="translate(161,224)"/>
<path d="M0 0 C-1.375 2 -1.375 2 -3 4 C-3.66 4 -4.32 4 -5 4 C-5 3.34 -5 2.68 -5 2 C-5.66 2 -6.32 2 -7 2 C-7 1.34 -7 0.68 -7 0 C-4.3333581 -1.33332095 -2.83319697 -0.67102033 0 0 Z " fill="#6E90D4" transform="translate(167,220)"/>
<path d="M0 0 C0.66 0.33 1.32 0.66 2 1 C1.67 1.99 1.34 2.98 1 4 C-1.875 4.625 -1.875 4.625 -5 5 C-5.66 4.34 -6.32 3.68 -7 3 C-5.5459375 2.814375 -5.5459375 2.814375 -4.0625 2.625 C-2.5465625 2.315625 -2.5465625 2.315625 -1 2 C-0.67 1.34 -0.34 0.68 0 0 Z " fill="#DCE8FC" transform="translate(301,298)"/>
<path d="M0 0 C2.97 0.495 2.97 0.495 6 1 C6.33 2.98 6.66 4.96 7 7 C5.83040013 6.02433888 4.66438823 5.044375 3.5 4.0625 C2.8503125 3.51722656 2.200625 2.97195312 1.53125 2.41015625 C1.0259375 1.94480469 0.520625 1.47945312 0 1 C0 0.67 0 0.34 0 0 Z " fill="#7D9AD9" transform="translate(360,230)"/>
<path d="M0 0 C-0.598125 0.20625 -1.19625 0.4125 -1.8125 0.625 C-4.81018767 2.50926082 -5.61361776 4.81132084 -7 8 C-7.33 8 -7.66 8 -8 8 C-8.36075949 3.55063291 -8.36075949 3.55063291 -6.8125 1.1875 C-4.44017475 -0.36678206 -2.77958655 -0.22537188 0 0 Z " fill="#DEEDFD" transform="translate(277,208)"/>
<path d="M0 0 C0.33 0 0.66 0 1 0 C1 1.98 1 3.96 1 6 C-0.65 6.33 -2.3 6.66 -4 7 C-2.79618552 4.50638429 -1.54571278 2.31856917 0 0 Z " fill="#6685C8" transform="translate(131,149)"/>
<path d="M0 0 C0.66 0 1.32 0 2 0 C1.67 2.64 1.34 5.28 1 8 C0.01 7.01 -0.98 6.02 -2 5 C-1.34 3.35 -0.68 1.7 0 0 Z " fill="#6387CD" transform="translate(130,306)"/>
<path d="M0 0 C-4.75 4 -4.75 4 -7 4 C-6.625 2.0625 -6.625 2.0625 -6 0 C-3.50907189 -1.24546405 -2.58919267 -0.7767578 0 0 Z " fill="#E2F2FE" transform="translate(300,232)"/>
<path d="M0 0 C2.31 0 4.62 0 7 0 C6.67 0.66 6.34 1.32 6 2 C4.68 2 3.36 2 2 2 C2 2.66 2 3.32 2 4 C1.34 4 0.68 4 0 4 C0 2.68 0 1.36 0 0 Z " fill="#E3F2FD" transform="translate(316,213)"/>
<path d="M0 0 C-0.33 0.99 -0.66 1.98 -1 3 C-3.31 3 -5.62 3 -8 3 C-4.93882432 0.37613513 -4.26826873 0 0 0 Z " fill="#7B98D3" transform="translate(232,150)"/>
<path d="" fill="#FFFFFF" transform="translate(0,0)"/>
<path d="" fill="#FFFFFF" transform="translate(0,0)"/>
<path d="" fill="#FFFFFF" transform="translate(0,0)"/>
<path d="" fill="#FFFFFF" transform="translate(0,0)"/>
<path d="" fill="#FFFFFF" transform="translate(0,0)"/>
<path d="" fill="#FFFFFF" transform="translate(0,0)"/>
<path d="" fill="#FFFFFF" transform="translate(0,0)"/>
<path d="" fill="#FFFFFF" transform="translate(0,0)"/>
<path d="" fill="#FFFFFF" transform="translate(0,0)"/>
<path d="" fill="#FFFFFF" transform="translate(0,0)"/>
<path d="" fill="#FFFFFF" transform="translate(0,0)"/>
<path d="" fill="#FFFFFF" transform="translate(0,0)"/>
<path d="" fill="#FFFFFF" transform="translate(0,0)"/>
<path d="" fill="#FFFFFF" transform="translate(0,0)"/>
<path d="" fill="#FFFFFF" transform="translate(0,0)"/>
<path d="" fill="#FFFFFF" transform="translate(0,0)"/>
<path d="" fill="#FFFFFF" transform="translate(0,0)"/>
<path d="" fill="#FFFFFF" transform="translate(0,0)"/>
<path d="" fill="#FFFFFF" transform="translate(0,0)"/>
<path d="" fill="#FFFFFF" transform="translate(0,0)"/>
<path d="" fill="#FFFFFF" transform="translate(0,0)"/>
<path d="" fill="#FFFFFF" transform="translate(0,0)"/>
<path d="" fill="#FFFFFF" transform="translate(0,0)"/>
<path d="" fill="#FFFFFF" transform="translate(0,0)"/>
<path d="" fill="#FFFFFF" transform="translate(0,0)"/>
<path d="" fill="#FFFFFF" transform="translate(0,0)"/>
<path d="" fill="#FFFFFF" transform="translate(0,0)"/>
<path d="" fill="#FFFFFF" transform="translate(0,0)"/>
<path d="" fill="#FFFFFF" transform="translate(0,0)"/>
<path d="" fill="#FFFFFF" transform="translate(0,0)"/>
<path d="" fill="#FFFFFF" transform="translate(0,0)"/>
<path d="" fill="#FFFFFF" transform="translate(0,0)"/>
<path d="" fill="#FFFFFF" transform="translate(0,0)"/>
<path d="" fill="#FFFFFF" transform="translate(0,0)"/>
<path d="" fill="#FFFFFF" transform="translate(0,0)"/>
<path d="" fill="#FFFFFF" transform="translate(0,0)"/>
<path d="" fill="#FFFFFF" transform="translate(0,0)"/>
<path d="" fill="#FFFFFF" transform="translate(0,0)"/>
<path d="" fill="#FFFFFF" transform="translate(0,0)"/>
<path d="" fill="#FFFFFF" transform="translate(0,0)"/>
<path d="" fill="#FFFFFF" transform="translate(0,0)"/>
<path d="" fill="#FFFFFF" transform="translate(0,0)"/>
<path d="" fill="#FFFFFF" transform="translate(0,0)"/>
<path d="" fill="#FFFFFF" transform="translate(0,0)"/>
<path d="" fill="#FFFFFF" transform="translate(0,0)"/>
<path d="" fill="#FFFFFF" transform="translate(0,0)"/>
<path d="" fill="#FFFFFF" transform="translate(0,0)"/>
<path d="" fill="#FFFFFF" transform="translate(0,0)"/>
<path d="" fill="#FFFFFF" transform="translate(0,0)"/>
</svg>
