<?xml version="1.0" encoding="UTF-8" standalone="no" ?>
<!DOCTYPE svg PUBLIC "-//W3C//DTD SVG 1.1//EN" "http://www.w3.org/Graphics/SVG/1.1/DTD/svg11.dtd">
<svg xmlns="http://www.w3.org/2000/svg" xmlns:xlink="http://www.w3.org/1999/xlink" version="1.1" width="1200" height="428" viewBox="0 0 1200 528" xml:space="preserve">
<desc>Created with Fabric.js 5.2.4</desc>
<defs>
</defs>
<g transform="matrix(0 0 0 0 0 0)" id="8ac1eb46-2348-4469-82af-35020defb749"  >
</g>
<g transform="matrix(1 0 0 1 600 264)" id="578e9892-af24-4317-ba59-b129ec54af04"  >
<rect style="stroke: none; stroke-width: 1; stroke-dasharray: none; stroke-linecap: butt; stroke-dashoffset: 0; stroke-linejoin: miter; stroke-miterlimit: 4; fill: rgb(255,255,255); fill-rule: nonzero; opacity: 1; visibility: hidden;" vector-effect="non-scaling-stroke"  x="-600" y="-264" rx="0" ry="0" width="1200" height="528" />
</g>
<g transform="matrix(1.3 0 0 1.3 600 354.79)"  >
<g style="" vector-effect="non-scaling-stroke"   >
		<g transform="matrix(1 0 0 1 0 0)"  >
<rect style="stroke: none; stroke-width: 1; stroke-dasharray: none; stroke-linecap: butt; stroke-dashoffset: 0; stroke-linejoin: miter; stroke-miterlimit: 4; fill: rgb(255,255,255); fill-rule: nonzero; opacity: 1; visibility: hidden;" vector-effect="non-scaling-stroke"  x="-540" y="-540" rx="0" ry="0" width="1080" height="1080" />
</g>
		<g transform="matrix(0.13 0 0 -0.13 -209.61 -154.12)"  >
<path style="stroke: none; stroke-width: 1; stroke-dasharray: none; stroke-linecap: butt; stroke-dashoffset: 0; stroke-linejoin: miter; stroke-miterlimit: 4; fill: rgb(0,0,0); fill-rule: nonzero; opacity: 1;" vector-effect="non-scaling-stroke"  transform=" translate(-2438.19, -3623.57)" d="M 2315 4034 C 2304 4032 2271 4025 2241 4019 C 1933 3956 1667 3747 1541 3467 C 1515 3409 1480 3279 1480 3238 L 1480 3209 L 1523 3238 C 1546 3254 1583 3277 1606 3288 C 1638 3304 1649 3317 1659 3350 C 1715 3538 1914 3741 2125 3825 C 2239 3870 2304 3882 2440 3882 C 2626 3881 2766 3839 2914 3738 C 3052 3644 3193 3459 3217 3339 C 3221 3316 3234 3304 3284 3279 C 3317 3262 3354 3240 3366 3229 C 3396 3201 3400 3205 3394 3258 C 3366 3483 3209 3725 2996 3869 C 2920 3921 2772 3988 2684 4010 C 2608 4030 2363 4046 2315 4034 z" stroke-linecap="round" />
</g>
		<g transform="matrix(0.13 0 0 -0.13 -207.7 -48.89)"  >
<path style="stroke: none; stroke-width: 1; stroke-dasharray: none; stroke-linecap: butt; stroke-dashoffset: 0; stroke-linejoin: miter; stroke-miterlimit: 4; fill: rgb(0,0,0); fill-rule: nonzero; opacity: 1;" vector-effect="non-scaling-stroke"  transform=" translate(-2430, -2825.13)" d="M 2392 3594 L 2370 3579 L 2370 2826 C 2370 2109 2371 2072 2388 2057 C 2412 2035 2453 2036 2473 2058 C 2489 2075 2490 2143 2490 2827 C 2490 3541 2489 3578 2472 3593 C 2449 3614 2421 3615 2392 3594 z" stroke-linecap="round" />
</g>
		<g transform="matrix(0.13 0 0 -0.13 -239.03 -31.47)"  >
<path style="stroke: none; stroke-width: 1; stroke-dasharray: none; stroke-linecap: butt; stroke-dashoffset: 0; stroke-linejoin: miter; stroke-miterlimit: 4; fill: rgb(0,0,0); fill-rule: nonzero; opacity: 1;" vector-effect="non-scaling-stroke"  transform=" translate(-2195, -2699.86)" d="M 2155 3254 C 2135 3239 2135 3227 2135 2699 C 2135 2175 2136 2158 2154 2144 C 2179 2126 2211 2126 2236 2144 C 2254 2158 2255 2175 2255 2693 C 2255 3205 2254 3229 2236 3249 C 2214 3274 2183 3276 2155 3254 z" stroke-linecap="round" />
</g>
		<g transform="matrix(0.13 0 0 -0.13 -175.11 -31.45)"  >
<path style="stroke: none; stroke-width: 1; stroke-dasharray: none; stroke-linecap: butt; stroke-dashoffset: 0; stroke-linejoin: miter; stroke-miterlimit: 4; fill: rgb(0,0,0); fill-rule: nonzero; opacity: 1;" vector-effect="non-scaling-stroke"  transform=" translate(-2674.57, -2699.62)" d="M 2630 3250 C 2611 3231 2610 3217 2610 2702 C 2610 2121 2609 2130 2670 2130 C 2703 2130 2727 2151 2736 2187 C 2740 2201 2740 2442 2737 2722 C 2732 3188 2730 3233 2714 3251 C 2692 3276 2655 3275 2630 3250 z" stroke-linecap="round" />
</g>
		<g transform="matrix(0.13 0 0 -0.13 -317.31 -45.76)"  >
<path style="stroke: none; stroke-width: 1; stroke-dasharray: none; stroke-linecap: butt; stroke-dashoffset: 0; stroke-linejoin: miter; stroke-miterlimit: 4; fill: rgb(0,0,0); fill-rule: nonzero; opacity: 1;" vector-effect="non-scaling-stroke"  transform=" translate(-1610.91, -2811.09)" d="M 1654 3195 C 1501 3119 1421 2969 1433 2780 C 1439 2677 1466 2600 1521 2532 C 1598 2434 1725 2375 1770 2415 C 1789 2432 1790 2447 1790 2807 C 1790 3046 1786 3188 1780 3201 C 1765 3228 1715 3226 1654 3195 z" stroke-linecap="round" />
</g>
		<g transform="matrix(0.13 0 0 -0.13 -96.28 -45.59)"  >
<path style="stroke: none; stroke-width: 1; stroke-dasharray: none; stroke-linecap: butt; stroke-dashoffset: 0; stroke-linejoin: miter; stroke-miterlimit: 4; fill: rgb(0,0,0); fill-rule: nonzero; opacity: 1;" vector-effect="non-scaling-stroke"  transform=" translate(-3268.62, -2809.75)" d="M 3103 3209 C 3085 3191 3084 2430 3102 2412 C 3138 2376 3250 2422 3329 2505 C 3487 2672 3488 2937 3332 3111 C 3261 3190 3136 3244 3103 3209 z" stroke-linecap="round" />
</g>
		<g transform="matrix(0.13 0 0 -0.13 -356.67 -49.14)"  >
<path style="stroke: none; stroke-width: 1; stroke-dasharray: none; stroke-linecap: butt; stroke-dashoffset: 0; stroke-linejoin: miter; stroke-miterlimit: 4; fill: rgb(0,0,0); fill-rule: nonzero; opacity: 1;" vector-effect="non-scaling-stroke"  transform=" translate(-1313.53, -2840.11)" d="M 1364 3073 C 1263 3006 1220 2935 1220 2834 C 1220 2739 1283 2637 1370 2590 C 1391 2579 1391 2579 1377 2607 C 1350 2659 1337 2744 1342 2846 C 1346 2929 1351 2957 1378 3019 C 1395 3060 1408 3095 1407 3097 C 1405 3098 1386 3088 1364 3073 z" stroke-linecap="round" />
</g>
		<g transform="matrix(0.13 0 0 -0.13 -56.94 -48.71)"  >
<path style="stroke: none; stroke-width: 1; stroke-dasharray: none; stroke-linecap: butt; stroke-dashoffset: 0; stroke-linejoin: miter; stroke-miterlimit: 4; fill: rgb(0,0,0); fill-rule: nonzero; opacity: 1;" vector-effect="non-scaling-stroke"  transform=" translate(-3561.45, -2837.27)" d="M 3470 3077 C 3470 3070 3474 3060 3479 3055 C 3484 3049 3498 3018 3510 2985 C 3543 2900 3543 2730 3512 2650 C 3487 2587 3487 2590 3498 2590 C 3514 2590 3592 2664 3616 2702 C 3662 2774 3665 2869 3625 2955 C 3599 3012 3470 3113 3470 3077 z" stroke-linecap="round" />
</g>
		<g transform="matrix(0.13 0 0 -0.13 -271.05 -24.81)"  >
<path style="stroke: none; stroke-width: 1; stroke-dasharray: none; stroke-linecap: butt; stroke-dashoffset: 0; stroke-linejoin: miter; stroke-miterlimit: 4; fill: rgb(0,0,0); fill-rule: nonzero; opacity: 1;" vector-effect="non-scaling-stroke"  transform=" translate(-1955, -2654.68)" d="M 1910 3010 C 1891 2991 1890 2977 1890 2663 C 1890 2420 1894 2329 1903 2310 C 1919 2278 1973 2270 2001 2296 C 2019 2312 2020 2331 2020 2650 C 2020 2975 2019 2987 2000 3008 C 1974 3035 1936 3036 1910 3010 z" stroke-linecap="round" />
</g>
		<g transform="matrix(0.13 0 0 -0.13 -143.19 -24.88)"  >
<path style="stroke: none; stroke-width: 1; stroke-dasharray: none; stroke-linecap: butt; stroke-dashoffset: 0; stroke-linejoin: miter; stroke-miterlimit: 4; fill: rgb(0,0,0); fill-rule: nonzero; opacity: 1;" vector-effect="non-scaling-stroke"  transform=" translate(-2914, -2655.33)" d="M 2866 3008 C 2842 2974 2842 2336 2866 2302 C 2886 2273 2933 2273 2960 2302 C 2979 2323 2980 2336 2980 2648 C 2980 2968 2977 3002 2946 3022 C 2923 3038 2881 3030 2866 3008 z" stroke-linecap="round" />
</g>
		<g transform="matrix(0.13 0 0 -0.13 24.76 -73.44)"  >
<path style="stroke: none; stroke-width: 1; stroke-dasharray: none; stroke-linecap: butt; stroke-dashoffset: 0; stroke-linejoin: miter; stroke-miterlimit: 4; fill: rgb(0,0,0); fill-rule: nonzero; opacity: 1;" vector-effect="non-scaling-stroke"  transform=" translate(-1378, -1520.26)" d="M 1395 1988 C 1298 1953 1218 1861 1196 1758 C 1190 1733 1186 1731 1127 1728 L 1065 1725 L 1065 1650 L 1065 1575 L 1128 1572 L 1190 1569 L 1190 1317 C 1190 1178 1194 1059 1199 1052 C 1204 1043 1229 1040 1286 1042 L 1365 1045 L 1368 1308 L 1370 1570 L 1435 1570 C 1488 1570 1501 1573 1510 1589 C 1524 1617 1523 1705 1507 1718 C 1500 1724 1466 1730 1432 1732 L 1371 1735 L 1383 1760 C 1399 1792 1456 1830 1488 1830 C 1501 1830 1539 1818 1572 1803 C 1619 1782 1637 1779 1658 1786 C 1684 1795 1685 1799 1688 1868 L 1691 1941 L 1626 1970 C 1573 1994 1547 2000 1493 1999 C 1455 1999 1412 1994 1395 1988 z" stroke-linecap="round" />
</g>
		<g transform="matrix(0.13 0 0 -0.13 255.79 -73.3)"  >
<path style="stroke: none; stroke-width: 1; stroke-dasharray: none; stroke-linecap: butt; stroke-dashoffset: 0; stroke-linejoin: miter; stroke-miterlimit: 4; fill: rgb(0,0,0); fill-rule: nonzero; opacity: 1;" vector-effect="non-scaling-stroke"  transform=" translate(-3105, -1519.3)" d="M 3020 1990 C 3020 1985 3020 1775 3020 1525 C 3020 1275 3020 1063 3020 1055 C 3020 1043 3036 1040 3105 1040 L 3190 1040 L 3188 1518 L 3185 1995 L 3103 1998 C 3050 2000 3020 1997 3020 1990 z" stroke-linecap="round" />
</g>
		<g transform="matrix(0.13 0 0 -0.13 296.43 -123.5)"  >
<path style="stroke: none; stroke-width: 1; stroke-dasharray: none; stroke-linecap: butt; stroke-dashoffset: 0; stroke-linejoin: miter; stroke-miterlimit: 4; fill: rgb(0,0,0); fill-rule: nonzero; opacity: 1;" vector-effect="non-scaling-stroke"  transform=" translate(-3409.97, -1905.36)" d="M 3361 1984 C 3348 1975 3332 1954 3325 1937 C 3288 1849 3404 1770 3474 1835 C 3553 1908 3449 2046 3361 1984 z" stroke-linecap="round" />
</g>
		<g transform="matrix(0.13 0 0 -0.13 348.69 -64.57)"  >
<path style="stroke: none; stroke-width: 1; stroke-dasharray: none; stroke-linecap: butt; stroke-dashoffset: 0; stroke-linejoin: miter; stroke-miterlimit: 4; fill: rgb(0,0,0); fill-rule: nonzero; opacity: 1;" vector-effect="non-scaling-stroke"  transform=" translate(-3805.75, -1455.12)" d="M 3647 1873 C 3643 1870 3640 1836 3640 1799 L 3640 1731 L 3603 1728 L 3565 1725 L 3562 1662 C 3559 1589 3569 1570 3611 1570 L 3640 1570 L 3640 1412 C 3640 1212 3652 1164 3719 1100 C 3746 1074 3782 1049 3806 1042 C 3856 1027 3962 1026 4013 1041 L 4050 1051 L 4050 1139 C 4050 1187 4048 1229 4044 1232 C 4041 1235 4018 1231 3993 1224 C 3921 1202 3873 1206 3845 1235 C 3821 1259 3820 1263 3820 1415 L 3820 1570 L 3894 1570 C 3978 1570 3980 1572 3980 1650 C 3980 1728 3978 1730 3894 1730 L 3820 1730 L 3820 1805 L 3820 1880 L 3737 1880 C 3691 1880 3650 1877 3647 1873 z" stroke-linecap="round" />
</g>
		<g transform="matrix(0.13 0 0 -0.13 90.8 -55.93)"  >
<path style="stroke: none; stroke-width: 1; stroke-dasharray: none; stroke-linecap: butt; stroke-dashoffset: 0; stroke-linejoin: miter; stroke-miterlimit: 4; fill: rgb(0,0,0); fill-rule: nonzero; opacity: 1;" vector-effect="non-scaling-stroke"  transform=" translate(-1874.11, -1392.06)" d="M 1805 1736 C 1778 1729 1737 1714 1715 1702 C 1509 1591 1466 1306 1630 1140 C 1712 1056 1763 1035 1880 1035 C 1969 1035 1979 1037 2036 1068 C 2070 1086 2112 1116 2129 1134 L 2160 1166 L 2098 1213 C 2063 1239 2028 1260 2019 1260 C 2011 1260 1989 1249 1970 1235 C 1926 1203 1878 1194 1828 1211 C 1789 1223 1730 1282 1730 1307 C 1730 1317 1786 1320 1973 1322 L 2215 1325 L 2218 1370 C 2222 1421 2205 1511 2183 1554 C 2158 1602 2079 1680 2030 1705 C 1988 1726 1895 1751 1867 1749 C 1860 1749 1833 1743 1805 1736 z M 1939 1555 C 1969 1540 2020 1485 2020 1469 C 2020 1464 1957 1460 1875 1460 C 1721 1460 1713 1463 1748 1507 C 1794 1564 1880 1586 1939 1555 z" stroke-linecap="round" />
</g>
		<g transform="matrix(0.13 0 0 -0.13 189.25 -55.88)"  >
<path style="stroke: none; stroke-width: 1; stroke-dasharray: none; stroke-linecap: butt; stroke-dashoffset: 0; stroke-linejoin: miter; stroke-miterlimit: 4; fill: rgb(0,0,0); fill-rule: nonzero; opacity: 1;" vector-effect="non-scaling-stroke"  transform=" translate(-2612.5, -1391.5)" d="M 2535 1736 C 2427 1709 2341 1640 2292 1541 C 2268 1492 2265 1473 2265 1390 C 2265 1302 2268 1289 2298 1228 C 2335 1153 2398 1090 2470 1056 C 2505 1040 2535 1035 2605 1035 C 2683 1035 2703 1039 2755 1063 C 2817 1092 2880 1144 2880 1167 C 2880 1180 2769 1260 2750 1260 C 2744 1260 2723 1249 2702 1236 C 2682 1222 2652 1208 2637 1204 C 2593 1194 2524 1218 2490 1257 C 2434 1321 2432 1320 2710 1320 L 2960 1320 L 2960 1365 C 2960 1550 2852 1695 2683 1736 C 2614 1752 2600 1752 2535 1736 z M 2674 1556 C 2692 1549 2716 1530 2728 1515 C 2769 1463 2764 1460 2605 1460 C 2525 1460 2460 1463 2460 1466 C 2460 1469 2467 1484 2477 1500 C 2512 1560 2602 1586 2674 1556 z" stroke-linecap="round" />
</g>
		<g transform="matrix(0.13 0 0 -0.13 297.12 -54.87)"  >
<path style="stroke: none; stroke-width: 1; stroke-dasharray: none; stroke-linecap: butt; stroke-dashoffset: 0; stroke-linejoin: miter; stroke-miterlimit: 4; fill: rgb(0,0,0); fill-rule: nonzero; opacity: 1;" vector-effect="non-scaling-stroke"  transform=" translate(-3415, -1384.27)" d="M 3356 1709 L 3330 1689 L 3330 1364 L 3330 1039 L 3413 1042 L 3495 1045 L 3498 1358 L 3500 1671 L 3471 1701 C 3436 1736 3394 1739 3356 1709 z" stroke-linecap="round" />
</g>
</g>
</g>
</svg>