<svg version="1.1" id="Layer_1" xmlns="http://www.w3.org/2000/svg" xmlns:xlink="http://www.w3.org/1999/xlink" x="0px" y="0px"
	 width="100%" viewBox="0 0 500 500" enable-background="new 0 0 500 500" xml:space="preserve">
<path fill="#FFFFFF" opacity="1.000000" stroke="none" 
	d="
M322.000000,501.000000 
	C214.666687,501.000000 107.833382,501.000000 1.000057,501.000000 
	C1.000038,334.333405 1.000038,167.666794 1.000019,1.000147 
	C167.666565,1.000098 334.333130,1.000098 500.999756,1.000049 
	C500.999847,167.666519 500.999847,334.333038 500.999939,500.999786 
	C441.500000,501.000000 382.000000,501.000000 322.000000,501.000000 
M288.965363,124.411827 
	C302.317596,133.661255 313.969452,144.536575 319.753387,160.128540 
	C322.348541,167.124435 325.897766,172.555954 333.041656,175.154800 
	C334.810394,175.798233 336.652252,176.240509 338.460541,176.775238 
	C338.841309,174.591049 339.869141,172.290543 339.500732,170.241013 
	C336.488800,153.485901 327.977905,139.537552 316.499908,127.338028 
	C301.238922,111.117691 282.320984,101.843552 260.422913,98.052498 
	C240.137466,94.540627 220.883453,97.827499 202.659332,106.632759 
	C194.673462,110.491241 187.267105,115.799248 180.176468,121.207924 
	C165.842087,132.142090 156.767151,146.973892 151.319489,163.928436 
	C149.969009,168.131470 148.280212,172.920090 150.227036,178.259933 
	C152.863037,176.875031 154.789886,175.442337 156.951202,174.806213 
	C163.381226,172.913712 166.068207,167.948074 168.898315,162.422668 
	C172.727859,154.945999 176.741714,147.247437 182.214462,140.988968 
	C197.714325,123.263863 217.443649,113.857674 241.284958,112.847267 
	C258.165863,112.131836 273.570160,116.406281 288.965363,124.411827 
M309.073425,248.255081 
	C309.248749,249.908401 309.356476,251.572189 309.610779,253.213257 
	C310.896057,261.507019 313.672333,263.078125 321.522339,259.799011 
	C330.357727,256.108276 336.314392,249.620132 340.783051,241.153580 
	C351.417786,221.004318 345.536438,195.851059 326.506927,183.397186 
	C323.296936,181.296402 319.253448,180.178452 315.433350,179.386642 
	C311.971771,178.669113 309.802582,180.516922 309.765839,184.450058 
	C309.570312,205.402496 309.298218,226.354233 309.073425,248.255081 
M158.720413,186.199661 
	C155.363541,190.267502 151.273087,193.935806 148.796478,198.483078 
	C142.926926,209.259995 141.455276,220.696213 145.266632,232.749283 
	C149.391708,245.794495 157.426468,255.153519 169.901840,260.582062 
	C175.688751,263.100189 179.777069,260.640808 179.820511,254.476974 
	C179.980148,231.828979 179.973633,209.178497 179.812683,186.530487 
	C179.771988,180.805832 175.632507,177.987396 170.276642,179.982208 
	C166.426590,181.416183 162.922104,183.778015 158.720413,186.199661 
M237.027237,192.500000 
	C237.147049,203.981522 237.254333,215.463196 237.390442,226.944519 
	C237.512665,237.252380 237.678299,247.559708 237.803238,257.867523 
	C237.934006,268.656219 238.022858,279.445435 238.183060,290.233643 
	C238.197525,291.206512 238.277222,292.638062 238.881729,293.058533 
	C240.895126,294.458984 243.332718,296.634247 245.281387,296.341370 
	C247.114532,296.065857 249.699814,293.172974 249.926208,291.199005 
	C250.738297,284.118378 250.908630,276.939850 250.930481,269.797119 
	C251.021652,239.999893 250.979645,210.202240 250.966705,180.404739 
	C250.961945,169.418610 250.994568,158.431076 250.820847,147.447159 
	C250.755524,143.316757 248.817139,140.335190 244.199249,140.299896 
	C239.732803,140.265762 238.099609,143.071808 238.007187,147.106522 
	C237.668243,161.904053 237.352478,176.702133 237.027237,192.500000 
M274.974884,189.540207 
	C274.883301,186.544586 275.477081,183.294617 274.488861,180.631775 
	C273.660034,178.398514 271.013794,175.404800 269.120941,175.367767 
	C266.799896,175.322357 264.089600,177.679626 262.205902,179.632935 
	C261.153412,180.724380 261.161560,183.103027 261.166962,184.900208 
	C261.182404,190.055389 261.578491,195.209885 261.576111,200.364548 
	C261.569733,214.330368 261.289307,228.297180 261.392395,242.261581 
	C261.490692,255.572906 261.856018,268.884247 262.284760,282.189728 
	C262.390656,285.475677 264.303772,288.599548 267.740417,287.987976 
	C270.140015,287.560883 272.345856,284.927917 274.164795,282.863129 
	C274.979706,281.938049 274.789154,279.991699 274.793396,278.508057 
	C274.877350,249.181107 274.922913,219.854050 274.974884,189.540207 
M214.009735,252.500000 
	C214.011978,256.664246 213.981354,260.828857 214.024445,264.992676 
	C214.083023,270.652557 214.038971,276.320526 214.347168,281.968201 
	C214.537979,285.464355 216.308212,288.074585 220.228821,288.144012 
	C224.096802,288.212433 225.881073,285.661530 226.544617,282.272003 
	C226.924622,280.330780 226.937347,278.297485 226.939117,276.305481 
	C226.966217,245.989868 226.971237,215.674240 226.952728,185.358643 
	C226.951508,183.367554 227.399933,180.910385 226.432129,179.495911 
	C225.013718,177.422836 222.483261,174.787338 220.465622,174.819672 
	C218.446411,174.852020 215.878067,177.531357 214.665375,179.679764 
	C213.634201,181.506622 214.067078,184.228897 214.062439,186.555420 
	C214.019287,208.203568 214.021622,229.851791 214.009735,252.500000 
M203.159653,267.450226 
	C203.371277,246.971680 203.588394,226.493195 203.774460,206.014420 
	C203.781876,205.197220 203.593582,204.343414 203.327240,203.564560 
	C202.172699,200.188324 200.279800,197.389755 196.281998,197.670395 
	C192.285706,197.950943 190.311417,200.848328 190.289841,204.488373 
	C190.168427,224.974106 190.256073,245.461105 190.281204,265.947662 
	C190.281601,266.275452 190.387085,266.604370 190.453812,266.930664 
	C191.152115,270.346405 192.863831,272.792419 196.617599,273.136871 
	C200.273285,273.472351 202.130859,271.402802 203.159653,267.450226 
M299.000610,217.375244 
	C298.860779,212.729843 299.029938,208.047394 298.478851,203.451309 
	C298.071655,200.055786 295.621490,197.050323 292.132294,197.860565 
	C289.862335,198.387695 287.237244,201.198975 286.477600,203.540512 
	C285.278381,207.236908 285.165863,211.401489 285.202271,215.362305 
	C285.332031,229.475571 285.717468,243.586487 286.009186,257.698212 
	C286.074463,260.853699 286.069519,264.013550 286.246155,267.163025 
	C286.451324,270.820221 288.900726,272.987030 292.130219,272.434937 
	C294.406403,272.045807 296.527252,269.786652 298.315582,267.967407 
	C299.055573,267.214630 298.886047,265.430389 298.891785,264.114227 
	C298.958618,248.854965 298.979767,233.595535 299.000610,217.375244 
M352.040833,241.620377 
	C370.098389,229.315048 371.843567,208.310684 355.714661,196.358215 
	C354.263855,195.283066 352.207184,195.025467 350.431885,194.388168 
	C350.488647,196.222748 350.089081,198.219543 350.674530,199.866150 
	C355.246094,212.724457 355.191742,225.530304 350.890472,238.429291 
	C350.576019,239.372360 351.307770,240.664307 352.040833,241.620377 
M123.833794,224.384140 
	C126.292015,231.581573 129.756256,237.922287 139.039352,241.669647 
	C132.871765,224.611572 133.749161,208.924362 140.641098,193.360443 
	C131.004044,194.228989 120.052864,208.909393 123.833794,224.384140 
z"/>
<path fill="#031116" opacity="1.000000" stroke="none" 
	d="
M288.640320,124.229324 
	C273.570160,116.406281 258.165863,112.131836 241.284958,112.847267 
	C217.443649,113.857674 197.714325,123.263863 182.214462,140.988968 
	C176.741714,147.247437 172.727859,154.945999 168.898315,162.422668 
	C166.068207,167.948074 163.381226,172.913712 156.951202,174.806213 
	C154.789886,175.442337 152.863037,176.875031 150.227036,178.259933 
	C148.280212,172.920090 149.969009,168.131470 151.319489,163.928436 
	C156.767151,146.973892 165.842087,132.142090 180.176468,121.207924 
	C187.267105,115.799248 194.673462,110.491241 202.659332,106.632759 
	C220.883453,97.827499 240.137466,94.540627 260.422913,98.052498 
	C282.320984,101.843552 301.238922,111.117691 316.499908,127.338028 
	C327.977905,139.537552 336.488800,153.485901 339.500732,170.241013 
	C339.869141,172.290543 338.841309,174.591049 338.460510,176.775238 
	C336.652252,176.240509 334.810394,175.798233 333.041656,175.154800 
	C325.897766,172.555954 322.348541,167.124435 319.753387,160.128540 
	C313.969452,144.536575 302.317596,133.661255 288.640320,124.229324 
z"/>
<path fill="#011115" opacity="1.000000" stroke="none" 
	d="
M309.062988,247.780640 
	C309.298218,226.354233 309.570312,205.402496 309.765839,184.450058 
	C309.802582,180.516922 311.971771,178.669113 315.433350,179.386642 
	C319.253448,180.178452 323.296936,181.296402 326.506927,183.397186 
	C345.536438,195.851059 351.417786,221.004318 340.783051,241.153580 
	C336.314392,249.620132 330.357727,256.108276 321.522339,259.799011 
	C313.672333,263.078125 310.896057,261.507019 309.610779,253.213257 
	C309.356476,251.572189 309.248749,249.908401 309.062988,247.780640 
z"/>
<path fill="#011115" opacity="1.000000" stroke="none" 
	d="
M158.991943,185.962799 
	C162.922104,183.778015 166.426590,181.416183 170.276642,179.982208 
	C175.632507,177.987396 179.771988,180.805832 179.812683,186.530487 
	C179.973633,209.178497 179.980148,231.828979 179.820511,254.476974 
	C179.777069,260.640808 175.688751,263.100189 169.901840,260.582062 
	C157.426468,255.153519 149.391708,245.794495 145.266632,232.749283 
	C141.455276,220.696213 142.926926,209.259995 148.796478,198.483078 
	C151.273087,193.935806 155.363541,190.267502 158.991943,185.962799 
z"/>
<path fill="#020F13" opacity="1.000000" stroke="none" 
	d="
M237.027618,192.000000 
	C237.352478,176.702133 237.668243,161.904053 238.007187,147.106522 
	C238.099609,143.071808 239.732803,140.265762 244.199249,140.299896 
	C248.817139,140.335190 250.755524,143.316757 250.820847,147.447159 
	C250.994568,158.431076 250.961945,169.418610 250.966705,180.404739 
	C250.979645,210.202240 251.021652,239.999893 250.930481,269.797119 
	C250.908630,276.939850 250.738297,284.118378 249.926208,291.199005 
	C249.699814,293.172974 247.114532,296.065857 245.281387,296.341370 
	C243.332718,296.634247 240.895126,294.458984 238.881729,293.058533 
	C238.277222,292.638062 238.197525,291.206512 238.183060,290.233643 
	C238.022858,279.445435 237.934006,268.656219 237.803238,257.867523 
	C237.678299,247.559708 237.512665,237.252380 237.390442,226.944519 
	C237.254333,215.463196 237.147049,203.981522 237.027618,192.000000 
z"/>
<path fill="#020F13" opacity="1.000000" stroke="none" 
	d="
M274.975586,190.033615 
	C274.922913,219.854050 274.877350,249.181107 274.793396,278.508057 
	C274.789154,279.991699 274.979706,281.938049 274.164795,282.863129 
	C272.345856,284.927917 270.140015,287.560883 267.740417,287.987976 
	C264.303772,288.599548 262.390656,285.475677 262.284760,282.189728 
	C261.856018,268.884247 261.490692,255.572906 261.392395,242.261581 
	C261.289307,228.297180 261.569733,214.330368 261.576111,200.364548 
	C261.578491,195.209885 261.182404,190.055389 261.166962,184.900208 
	C261.161560,183.103027 261.153412,180.724380 262.205902,179.632935 
	C264.089600,177.679626 266.799896,175.322357 269.120941,175.367767 
	C271.013794,175.404800 273.660034,178.398514 274.488861,180.631775 
	C275.477081,183.294617 274.883301,186.544586 274.975586,190.033615 
z"/>
<path fill="#021015" opacity="1.000000" stroke="none" 
	d="
M214.010254,252.000000 
	C214.021622,229.851791 214.019287,208.203568 214.062439,186.555420 
	C214.067078,184.228897 213.634201,181.506622 214.665375,179.679764 
	C215.878067,177.531357 218.446411,174.852020 220.465622,174.819672 
	C222.483261,174.787338 225.013718,177.422836 226.432129,179.495911 
	C227.399933,180.910385 226.951508,183.367554 226.952728,185.358643 
	C226.971237,215.674240 226.966217,245.989868 226.939117,276.305481 
	C226.937347,278.297485 226.924622,280.330780 226.544617,282.272003 
	C225.881073,285.661530 224.096802,288.212433 220.228821,288.144012 
	C216.308212,288.074585 214.537979,285.464355 214.347168,281.968201 
	C214.038971,276.320526 214.083023,270.652557 214.024445,264.992676 
	C213.981354,260.828857 214.011978,256.664246 214.010254,252.000000 
z"/>
<path fill="#021015" opacity="1.000000" stroke="none" 
	d="
M203.096756,267.799988 
	C202.130859,271.402802 200.273285,273.472351 196.617599,273.136871 
	C192.863831,272.792419 191.152115,270.346405 190.453812,266.930664 
	C190.387085,266.604370 190.281601,266.275452 190.281204,265.947662 
	C190.256073,245.461105 190.168427,224.974106 190.289841,204.488373 
	C190.311417,200.848328 192.285706,197.950943 196.281998,197.670395 
	C200.279800,197.389755 202.172699,200.188324 203.327240,203.564560 
	C203.593582,204.343414 203.781876,205.197220 203.774460,206.014420 
	C203.588394,226.493195 203.371277,246.971680 203.096756,267.799988 
z"/>
<path fill="#021015" opacity="1.000000" stroke="none" 
	d="
M299.006836,217.855682 
	C298.979767,233.595535 298.958618,248.854965 298.891785,264.114227 
	C298.886047,265.430389 299.055573,267.214630 298.315582,267.967407 
	C296.527252,269.786652 294.406403,272.045807 292.130219,272.434937 
	C288.900726,272.987030 286.451324,270.820221 286.246155,267.163025 
	C286.069519,264.013550 286.074463,260.853699 286.009186,257.698212 
	C285.717468,243.586487 285.332031,229.475571 285.202271,215.362305 
	C285.165863,211.401489 285.278381,207.236908 286.477600,203.540512 
	C287.237244,201.198975 289.862335,198.387695 292.132294,197.860565 
	C295.621490,197.050323 298.071655,200.055786 298.478851,203.451309 
	C299.029938,208.047394 298.860779,212.729843 299.006836,217.855682 
z"/>
<path fill="#020F13" opacity="1.000000" stroke="none" 
	d="
M351.796967,241.707214 
	C351.307770,240.664307 350.576019,239.372360 350.890472,238.429291 
	C355.191742,225.530304 355.246094,212.724457 350.674530,199.866150 
	C350.089081,198.219543 350.488647,196.222748 350.431885,194.388168 
	C352.207184,195.025467 354.263855,195.283066 355.714661,196.358215 
	C371.843567,208.310684 370.098389,229.315048 351.796967,241.707214 
z"/>
<path fill="#021015" opacity="1.000000" stroke="none" 
	d="
M123.725647,223.981140 
	C120.052864,208.909393 131.004044,194.228989 140.641098,193.360443 
	C133.749161,208.924362 132.871765,224.611572 139.039352,241.669647 
	C129.756256,237.922287 126.292015,231.581573 123.725647,223.981140 
z"/>
</svg>