<svg version="1.1" id="Layer_1" xmlns="http://www.w3.org/2000/svg" xmlns:xlink="http://www.w3.org/1999/xlink" x="0px" y="0px"
	 width="100%" viewBox="0 0 500 500" enable-background="new 0 0 500 500" xml:space="preserve">
<path fill="#000000" opacity="1.000000" stroke="none" 
	d="
M315.000000,501.000000 
	C210.000031,501.000000 105.500053,501.000000 1.000056,501.000000 
	C1.000037,334.333405 1.000037,167.666794 1.000019,1.000146 
	C167.666565,1.000097 334.333130,1.000097 500.999756,1.000049 
	C500.999847,167.666519 500.999847,334.333038 500.999939,500.999786 
	C439.166656,501.000000 377.333344,501.000000 315.000000,501.000000 
M165.064896,116.560173 
	C162.795242,118.463577 160.552902,120.400711 158.251465,122.264862 
	C144.128052,133.704727 132.725128,147.433167 124.027977,163.361557 
	C110.313049,188.479736 104.580597,215.158676 106.817764,243.894516 
	C108.256195,262.370911 112.978111,279.687469 120.837212,296.184662 
	C130.851501,317.205841 145.616135,334.545715 164.194870,348.532318 
	C187.083786,365.763794 213.073456,375.239197 241.547531,376.633514 
	C253.788406,377.232971 266.342896,375.933105 278.455597,373.798157 
	C314.513885,367.442535 343.380524,348.329437 365.310272,319.670929 
	C389.642731,287.872498 398.149689,251.158310 392.768677,211.613052 
	C389.682709,188.934433 381.280762,167.947113 367.598083,149.435486 
	C357.530121,135.814316 345.788422,123.702759 331.763245,114.037941 
	C313.958679,101.768715 294.400909,94.168488 272.922333,90.820053 
	C254.034180,87.875465 235.476028,88.664848 216.955124,92.642883 
	C198.149490,96.682068 181.185699,104.902214 165.064896,116.560173 
z"/>
<path fill="#668EDD" opacity="1.000000" stroke="none" 
	d="
M165.325867,116.304794 
	C181.185699,104.902214 198.149490,96.682068 216.955124,92.642883 
	C235.476028,88.664848 254.034180,87.875465 272.922333,90.820053 
	C294.400909,94.168488 313.958679,101.768715 331.763245,114.037941 
	C345.788422,123.702759 357.530121,135.814316 367.598083,149.435486 
	C381.280762,167.947113 389.682709,188.934433 392.768677,211.613052 
	C398.149689,251.158310 389.642731,287.872498 365.310272,319.670929 
	C343.380524,348.329437 314.513885,367.442535 278.455597,373.798157 
	C266.342896,375.933105 253.788406,377.232971 241.547531,376.633514 
	C213.073456,375.239197 187.083786,365.763794 164.194870,348.532318 
	C145.616135,334.545715 130.851501,317.205841 120.837212,296.184662 
	C112.978111,279.687469 108.256195,262.370911 106.817764,243.894516 
	C104.580597,215.158676 110.313049,188.479736 124.027977,163.361557 
	C132.725128,147.433167 144.128052,133.704727 158.251465,122.264862 
	C160.552902,120.400711 162.795242,118.463577 165.325867,116.304794 
M255.990723,177.018982 
	C255.990723,177.018982 255.950836,177.066727 255.894821,176.375381 
	C252.856339,171.744110 252.052063,171.798203 248.033997,175.039917 
	C244.699463,177.730133 244.410904,181.154541 244.514801,184.856842 
	C244.598633,187.843796 244.963989,190.826614 244.966965,193.811493 
	C245.002380,229.274506 244.974442,264.737579 245.039749,300.200500 
	C245.043915,302.463989 245.680252,304.726318 246.186646,307.860168 
	C246.187302,310.216675 246.187958,312.573212 245.721939,315.585876 
	C245.545959,317.822723 244.626144,320.366089 245.388596,322.216187 
	C246.274811,324.366730 248.394318,326.345459 250.477051,327.497894 
	C251.289612,327.947510 253.459213,325.944611 255.229660,324.872742 
	C255.229660,324.872742 255.516815,324.862946 256.241058,324.670044 
	C256.587738,322.466003 256.934418,320.261932 257.198242,317.210693 
	C257.322754,315.804230 257.447235,314.397797 258.077576,312.594055 
	C258.923065,310.019135 261.764435,307.371277 257.659332,304.314545 
	C257.715851,303.872711 257.772339,303.430878 258.499237,302.706787 
	C258.672791,300.223206 258.968079,297.741272 259.001099,295.255829 
	C259.332275,270.319550 259.633179,245.382858 259.909088,220.445923 
	C259.960083,215.837372 259.961548,211.222458 259.744720,206.621826 
	C259.702423,205.725159 258.542816,204.881149 257.721161,203.174606 
	C257.759125,201.467743 257.797119,199.760880 258.293182,197.470795 
	C259.454559,194.215164 261.411560,190.900558 257.370911,187.171539 
	C257.331604,185.430786 257.292297,183.690048 257.517395,181.473175 
	C257.347656,180.645584 257.177948,179.817993 256.872406,178.733994 
	C256.872406,178.733994 256.943848,178.452759 256.688873,177.913269 
	C256.435944,177.610580 256.183014,177.307907 255.990723,177.018982 
M232.915649,210.084473 
	C232.915649,210.084473 232.910797,210.157074 232.631226,209.464371 
	C227.272583,206.578674 224.019211,207.863083 222.883957,213.413040 
	C222.453522,215.517288 222.054169,217.676865 222.050201,219.811966 
	C221.995453,249.230972 221.965988,278.650330 222.100677,308.068817 
	C222.111252,310.381104 223.387451,312.687653 224.398590,315.341431 
	C224.628616,315.751587 224.858643,316.161774 225.579178,317.104248 
	C226.252762,317.345032 226.926346,317.585815 227.819778,317.712738 
	C227.819778,317.712738 228.035278,317.834625 228.250549,318.441620 
	C230.905655,320.865295 231.975998,319.000854 233.088654,316.366608 
	C233.263748,316.146698 233.485336,315.994446 234.483185,315.615051 
	C234.982376,314.289276 235.914169,312.964539 235.917435,311.637543 
	C235.996002,279.649811 236.027710,247.661530 235.838913,215.674698 
	C235.827911,213.808990 233.886658,211.954651 232.915649,210.084473 
M235.062714,150.409073 
	C244.505722,150.269379 254.094193,149.002914 263.364655,150.199768 
	C291.999817,153.896652 312.265076,170.132034 323.526123,196.110062 
	C327.618896,205.551590 335.426880,207.377151 342.576447,213.450836 
	C342.276581,202.498947 339.494537,193.660202 335.082886,185.440918 
	C318.133057,153.861877 291.801910,137.407730 255.877838,134.405151 
	C222.138840,131.585205 179.944122,153.064972 164.766159,191.040741 
	C162.133057,197.628845 160.989288,204.812210 159.157593,211.720612 
	C159.706955,211.956787 160.256317,212.192947 160.805679,212.429108 
	C164.610367,210.136032 168.600403,208.092056 172.147324,205.452621 
	C174.142929,203.967636 175.963287,201.731125 176.915939,199.439621 
	C187.745804,173.389587 207.030060,157.383392 235.062714,150.409073 
M156.141190,241.929413 
	C155.822601,246.565353 155.103455,251.214706 155.257919,255.834824 
	C155.796036,271.929993 165.482483,285.952942 179.075500,290.847626 
	C185.661957,293.219330 188.940491,291.332947 188.972794,284.504974 
	C189.075073,262.879578 188.982010,241.252533 188.819031,219.627213 
	C188.780441,214.505997 186.845276,213.114517 181.820312,214.187256 
	C179.738052,214.631790 177.683151,215.467178 175.780090,216.444656 
	C165.557785,221.695114 159.237915,230.070496 156.141190,241.929413 
M343.241302,229.314850 
	C338.440979,221.937119 332.004974,216.639709 323.450195,214.279419 
	C318.769196,212.987930 317.040466,214.124252 317.012268,218.764694 
	C316.874176,241.528748 316.853699,264.294128 316.946472,287.058411 
	C316.965118,291.636169 318.980347,293.155182 323.378845,291.634613 
	C327.241913,290.299194 331.111389,288.428070 334.366150,285.980011 
	C351.334778,273.217255 355.011536,250.336426 343.241302,229.314850 
M281.909790,298.489655 
	C281.849762,285.503723 281.874390,272.516724 281.706329,259.532196 
	C281.531830,246.048584 281.191925,232.566895 280.883575,219.085297 
	C280.703705,211.222336 279.489410,209.035324 275.497467,209.069641 
	C271.503174,209.103958 270.007996,211.746780 269.887238,219.002655 
	C269.851257,221.166641 269.802307,223.330978 269.808105,225.495010 
	C269.883942,253.795868 269.923889,282.097015 270.112030,310.397156 
	C270.133575,313.637390 270.239899,317.649750 275.003601,317.639709 
	C279.449829,317.630341 281.473297,314.660431 281.685974,310.467224 
	C281.871429,306.811768 281.840149,303.145294 281.909790,298.489655 
M209.675003,233.985809 
	C203.824905,230.897308 200.213196,232.723648 200.115509,239.285294 
	C199.882324,254.944260 199.912582,270.607697 199.919128,286.269318 
	C199.920868,290.429871 199.938568,294.626373 200.462387,298.740997 
	C201.021774,303.135040 206.484314,305.472778 209.428848,302.481995 
	C210.938370,300.948761 211.661362,298.038666 211.684616,295.740143 
	C211.866776,277.746307 211.851212,259.749481 211.728668,241.754700 
	C211.712265,239.344620 210.756119,236.940948 209.675003,233.985809 
M293.381897,295.028625 
	C293.508698,296.186005 293.721100,297.341522 293.745819,298.501068 
	C293.813782,301.689728 295.519012,304.138275 298.508759,303.483063 
	C300.779510,302.985413 302.804199,300.608704 304.518219,298.692291 
	C305.221649,297.905792 304.908508,296.131775 304.909119,294.806915 
	C304.917084,277.333435 304.934387,259.859741 304.843140,242.386673 
	C304.831146,240.088226 304.775513,237.494217 303.732239,235.588974 
	C302.872498,234.018845 300.397583,232.238647 298.860291,232.421051 
	C297.084015,232.631821 295.055115,234.606644 294.058136,236.344543 
	C293.146973,237.932877 293.277130,240.226929 293.273529,242.210587 
	C293.242096,259.514465 293.283783,276.818481 293.381897,295.028625 
M363.718109,233.805847 
	C360.607574,231.387314 357.497040,228.968765 354.071472,226.305298 
	C355.914307,234.942963 358.472687,242.384949 358.843262,249.934326 
	C359.223755,257.685974 357.466675,265.542542 356.680725,273.014191 
	C370.989410,267.935638 375.405914,247.248657 363.718109,233.805847 
M146.297440,258.978394 
	C147.238602,248.684219 148.179764,238.390030 149.087143,228.465256 
	C142.394043,229.633789 135.216385,238.893250 134.662247,248.662811 
	C134.053146,259.401031 140.744812,270.747589 149.230209,273.374664 
	C148.291046,268.871918 147.351868,264.369202 146.297440,258.978394 
z"/>
<path fill="#F8FBFD" opacity="1.000000" stroke="none" 
	d="
M234.650192,150.516357 
	C207.030060,157.383392 187.745804,173.389587 176.915939,199.439621 
	C175.963287,201.731125 174.142929,203.967636 172.147324,205.452621 
	C168.600403,208.092056 164.610367,210.136032 160.805679,212.429108 
	C160.256317,212.192947 159.706955,211.956787 159.157593,211.720612 
	C160.989288,204.812210 162.133057,197.628845 164.766159,191.040741 
	C179.944122,153.064972 222.138840,131.585205 255.877838,134.405151 
	C291.801910,137.407730 318.133057,153.861877 335.082886,185.440918 
	C339.494537,193.660202 342.276581,202.498947 342.576447,213.450836 
	C335.426880,207.377151 327.618896,205.551590 323.526123,196.110062 
	C312.265076,170.132034 291.999817,153.896652 263.364655,150.199768 
	C254.094193,149.002914 244.505722,150.269379 234.650192,150.516357 
z"/>
<path fill="#FCFDFE" opacity="1.000000" stroke="none" 
	d="
M156.248840,241.527435 
	C159.237915,230.070496 165.557785,221.695114 175.780090,216.444656 
	C177.683151,215.467178 179.738052,214.631790 181.820312,214.187256 
	C186.845276,213.114517 188.780441,214.505997 188.819031,219.627213 
	C188.982010,241.252533 189.075073,262.879578 188.972794,284.504974 
	C188.940491,291.332947 185.661957,293.219330 179.075500,290.847626 
	C165.482483,285.952942 155.796036,271.929993 155.257919,255.834824 
	C155.103455,251.214706 155.822601,246.565353 156.248840,241.527435 
z"/>
<path fill="#FBFDFE" opacity="1.000000" stroke="none" 
	d="
M343.445496,229.618530 
	C355.011536,250.336426 351.334778,273.217255 334.366150,285.980011 
	C331.111389,288.428070 327.241913,290.299194 323.378845,291.634613 
	C318.980347,293.155182 316.965118,291.636169 316.946472,287.058411 
	C316.853699,264.294128 316.874176,241.528748 317.012268,218.764694 
	C317.040466,214.124252 318.769196,212.987930 323.450195,214.279419 
	C332.004974,216.639709 338.440979,221.937119 343.445496,229.618530 
z"/>
<path fill="#F6F9FE" opacity="1.000000" stroke="none" 
	d="
M246.188614,314.929718 
	C246.187958,312.573212 246.187302,310.216675 246.186005,306.963379 
	C246.168396,265.334625 246.144684,224.602722 246.140930,183.870804 
	C246.140274,176.848328 249.212402,174.746124 255.950836,177.066727 
	C255.950836,177.066727 255.990723,177.018982 256.077393,177.286926 
	C256.423981,177.854172 256.683929,178.153473 256.943848,178.452759 
	C256.943848,178.452759 256.872406,178.733994 256.904694,179.235199 
	C257.042328,180.474045 257.147675,181.211670 257.253021,181.949295 
	C257.292297,183.690048 257.331604,185.430786 257.391205,188.015106 
	C257.552704,191.923782 257.693878,194.988907 257.835083,198.054016 
	C257.797119,199.760880 257.759125,201.467743 257.723999,204.054565 
	C257.747040,222.192520 257.768890,239.450500 257.786957,256.708496 
	C257.803101,272.135345 257.815033,287.562195 257.828857,302.989044 
	C257.772339,303.430878 257.715851,303.872711 257.601379,305.010925 
	C257.552856,308.135315 257.562317,310.563324 257.571747,312.991333 
	C257.447235,314.397797 257.322754,315.804230 257.148010,318.020874 
	C256.570770,320.841675 256.043793,322.852295 255.516815,324.862946 
	C255.516815,324.862946 255.229660,324.872742 254.768173,324.987122 
	C248.789307,325.859344 247.301849,324.678192 246.801163,319.226807 
	C246.668991,317.787842 246.396606,316.361725 246.188614,314.929718 
z"/>
<path fill="#F8FCFE" opacity="1.000000" stroke="none" 
	d="
M281.907227,298.986694 
	C281.840149,303.145294 281.871429,306.811768 281.685974,310.467224 
	C281.473297,314.660431 279.449829,317.630341 275.003601,317.639709 
	C270.239899,317.649750 270.133575,313.637390 270.112030,310.397156 
	C269.923889,282.097015 269.883942,253.795868 269.808105,225.495010 
	C269.802307,223.330978 269.851257,221.166641 269.887238,219.002655 
	C270.007996,211.746780 271.503174,209.103958 275.497467,209.069641 
	C279.489410,209.035324 280.703705,211.222336 280.883575,219.085297 
	C281.191925,232.566895 281.531830,246.048584 281.706329,259.532196 
	C281.874390,272.516724 281.849762,285.503723 281.907227,298.986694 
z"/>
<path fill="#F6F9FD" opacity="1.000000" stroke="none" 
	d="
M228.035278,317.834656 
	C228.035278,317.834625 227.819778,317.712738 227.451706,317.518005 
	C226.418640,317.072815 225.753647,316.822388 225.088654,316.571960 
	C224.858643,316.161774 224.628616,315.751587 224.257019,314.701416 
	C224.056473,281.425415 223.918961,248.789276 224.002258,216.153702 
	C224.019699,209.321442 226.276031,208.065063 232.910797,210.157074 
	C232.910797,210.157074 232.915649,210.084473 233.002289,210.467255 
	C233.650574,215.106354 234.675537,219.360168 234.698547,223.619400 
	C234.844940,250.741989 234.808304,277.865906 234.723709,304.989014 
	C234.712357,308.630280 234.091858,312.269653 233.753448,315.909882 
	C233.485336,315.994446 233.263748,316.146698 232.638062,316.602966 
	C230.803406,317.171082 229.419342,317.502869 228.035278,317.834656 
z"/>
<path fill="#F7FCFE" opacity="1.000000" stroke="none" 
	d="
M209.955078,234.260056 
	C210.756119,236.940948 211.712265,239.344620 211.728668,241.754700 
	C211.851212,259.749481 211.866776,277.746307 211.684616,295.740143 
	C211.661362,298.038666 210.938370,300.948761 209.428848,302.481995 
	C206.484314,305.472778 201.021774,303.135040 200.462387,298.740997 
	C199.938568,294.626373 199.920868,290.429871 199.919128,286.269318 
	C199.912582,270.607697 199.882324,254.944260 200.115509,239.285294 
	C200.213196,232.723648 203.824905,230.897308 209.955078,234.260056 
z"/>
<path fill="#F9FCFE" opacity="1.000000" stroke="none" 
	d="
M293.342834,294.575531 
	C293.283783,276.818481 293.242096,259.514465 293.273529,242.210587 
	C293.277130,240.226929 293.146973,237.932877 294.058136,236.344543 
	C295.055115,234.606644 297.084015,232.631821 298.860291,232.421051 
	C300.397583,232.238647 302.872498,234.018845 303.732239,235.588974 
	C304.775513,237.494217 304.831146,240.088226 304.843140,242.386673 
	C304.934387,259.859741 304.917084,277.333435 304.909119,294.806915 
	C304.908508,296.131775 305.221649,297.905792 304.518219,298.692291 
	C302.804199,300.608704 300.779510,302.985413 298.508759,303.483063 
	C295.519012,304.138275 293.813782,301.689728 293.745819,298.501068 
	C293.721100,297.341522 293.508698,296.186005 293.342834,294.575531 
z"/>
<path fill="#F4F9FE" opacity="1.000000" stroke="none" 
	d="
M363.968994,234.062820 
	C375.405914,247.248657 370.989410,267.935638 356.680725,273.014191 
	C357.466675,265.542542 359.223755,257.685974 358.843262,249.934326 
	C358.472687,242.384949 355.914307,234.942963 354.071472,226.305298 
	C357.497040,228.968765 360.607574,231.387314 363.968994,234.062820 
z"/>
<path fill="#F5F1F7" opacity="1.000000" stroke="none" 
	d="
M146.355072,259.422424 
	C147.351868,264.369202 148.291046,268.871918 149.232895,273.374207 
	C140.744812,270.747589 134.053146,259.401031 134.662247,248.662811 
	C135.216385,238.893250 142.394043,229.633789 149.087143,228.465256 
	C148.179764,238.390030 147.238602,248.684219 146.355072,259.422424 
z"/>
<path fill="#7696D5" opacity="1.000000" stroke="none" 
	d="
M232.771011,209.810730 
	C226.276031,208.065063 224.019699,209.321442 224.002258,216.153702 
	C223.918961,248.789276 224.056473,281.425415 224.095459,314.529114 
	C223.387451,312.687653 222.111252,310.381104 222.100677,308.068817 
	C221.965988,278.650330 221.995453,249.230972 222.050201,219.811966 
	C222.054169,217.676865 222.453522,215.517288 222.883957,213.413040 
	C224.019211,207.863083 227.272583,206.578674 232.771011,209.810730 
z"/>
<path fill="#6E92D5" opacity="1.000000" stroke="none" 
	d="
M255.922821,176.721054 
	C249.212402,174.746124 246.140274,176.848328 246.140930,183.870804 
	C246.144684,224.602722 246.168396,265.334625 246.103943,306.527863 
	C245.680252,304.726318 245.043915,302.463989 245.039749,300.200500 
	C244.974442,264.737579 245.002380,229.274506 244.966965,193.811493 
	C244.963989,190.826614 244.598633,187.843796 244.514801,184.856842 
	C244.410904,181.154541 244.699463,177.730133 248.033997,175.039917 
	C252.052063,171.798203 252.856339,171.744110 255.922821,176.721054 
z"/>
<path fill="#7696D5" opacity="1.000000" stroke="none" 
	d="
M234.118317,315.762451 
	C234.091858,312.269653 234.712357,308.630280 234.723709,304.989014 
	C234.808304,277.865906 234.844940,250.741989 234.698547,223.619400 
	C234.675537,219.360168 233.650574,215.106354 232.966293,210.472534 
	C233.886658,211.954651 235.827911,213.808990 235.838913,215.674698 
	C236.027710,247.661530 235.996002,279.649811 235.917435,311.637543 
	C235.914169,312.964539 234.982376,314.289276 234.118317,315.762451 
z"/>
<path fill="#6E92D5" opacity="1.000000" stroke="none" 
	d="
M258.164062,302.847900 
	C257.815033,287.562195 257.803101,272.135345 257.786957,256.708496 
	C257.768890,239.450500 257.747040,222.192520 257.812714,204.473694 
	C258.542816,204.881149 259.702423,205.725159 259.744720,206.621826 
	C259.961548,211.222458 259.960083,215.837372 259.909088,220.445923 
	C259.633179,245.382858 259.332275,270.319550 259.001099,295.255829 
	C258.968079,297.741272 258.672791,300.223206 258.164062,302.847900 
z"/>
<path fill="#6E92D5" opacity="1.000000" stroke="none" 
	d="
M245.955276,315.257812 
	C246.396606,316.361725 246.668991,317.787842 246.801163,319.226807 
	C247.301849,324.678192 248.789307,325.859344 254.658691,325.080139 
	C253.459213,325.944611 251.289612,327.947510 250.477051,327.497894 
	C248.394318,326.345459 246.274811,324.366730 245.388596,322.216187 
	C244.626144,320.366089 245.545959,317.822723 245.955276,315.257812 
z"/>
<path fill="#6E92D5" opacity="1.000000" stroke="none" 
	d="
M258.064148,197.762405 
	C257.693878,194.988907 257.552704,191.923782 257.501770,188.436462 
	C261.411560,190.900558 259.454559,194.215164 258.064148,197.762405 
z"/>
<path fill="#6E92D5" opacity="1.000000" stroke="none" 
	d="
M257.824646,312.792694 
	C257.562317,310.563324 257.552856,308.135315 257.671173,305.339783 
	C261.764435,307.371277 258.923065,310.019135 257.824646,312.792694 
z"/>
<path fill="#7696D5" opacity="1.000000" stroke="none" 
	d="
M228.142914,318.138123 
	C229.419342,317.502869 230.803406,317.171082 232.540955,316.782349 
	C231.975998,319.000854 230.905655,320.865295 228.142914,318.138123 
z"/>
<path fill="#6E92D5" opacity="1.000000" stroke="none" 
	d="
M255.878937,324.766479 
	C256.043793,322.852295 256.570770,320.841675 257.189423,318.444458 
	C256.934418,320.261932 256.587738,322.466003 255.878937,324.766479 
z"/>
<path fill="#6E92D5" opacity="1.000000" stroke="none" 
	d="
M257.385193,181.711243 
	C257.147675,181.211670 257.042328,180.474045 256.972595,179.363403 
	C257.177948,179.817993 257.347656,180.645584 257.385193,181.711243 
z"/>
<path fill="#7696D5" opacity="1.000000" stroke="none" 
	d="
M225.333923,316.838104 
	C225.753647,316.822388 226.418640,317.072815 227.341782,317.574890 
	C226.926346,317.585815 226.252762,317.345032 225.333923,316.838104 
z"/>
<path fill="#6E92D5" opacity="1.000000" stroke="none" 
	d="
M256.816345,178.183014 
	C256.683929,178.153473 256.423981,177.854172 256.047058,177.280060 
	C256.183014,177.307907 256.435944,177.610580 256.816345,178.183014 
z"/>
</svg>