<?xml version="1.0" standalone="no"?>
<!DOCTYPE svg PUBLIC "-//W3C//DTD SVG 20010904//EN"
 "http://www.w3.org/TR/2001/REC-SVG-20010904/DTD/svg10.dtd">
<svg version="1.0" xmlns="http://www.w3.org/2000/svg"
 width="500.000000pt" height="500.000000pt" viewBox="0 0 500.000000 500.000000"
 preserveAspectRatio="xMidYMid meet">

<g transform="translate(0.000000,500.000000) scale(0.100000,-0.100000)"
fill="#000000" stroke="none">
<path d="M2315 4034 c-11 -2 -44 -9 -74 -15 -308 -63 -574 -272 -700 -552 -26
-58 -61 -188 -61 -229 l0 -29 43 29 c23 16 60 39 83 50 32 16 43 29 53 62 56
188 255 391 466 475 114 45 179 57 315 57 186 -1 326 -43 474 -144 138 -94
279 -279 303 -399 4 -23 17 -35 67 -60 33 -17 70 -39 82 -50 30 -28 34 -24 28
29 -28 225 -185 467 -398 611 -76 52 -224 119 -312 141 -76 20 -321 36 -369
24z"/>
<path d="M2392 3594 l-22 -15 0 -753 c0 -717 1 -754 18 -769 24 -22 65 -21 85
1 16 17 17 85 17 769 0 714 -1 751 -18 766 -23 21 -51 22 -80 1z"/>
<path d="M2155 3254 c-20 -15 -20 -27 -20 -555 0 -524 1 -541 19 -555 25 -18
57 -18 82 0 18 14 19 31 19 549 0 512 -1 536 -19 556 -22 25 -53 27 -81 5z"/>
<path d="M2630 3250 c-19 -19 -20 -33 -20 -548 0 -581 -1 -572 60 -572 33 0
57 21 66 57 4 14 4 255 1 535 -5 466 -7 511 -23 529 -22 25 -59 24 -84 -1z"/>
<path d="M1654 3195 c-153 -76 -233 -226 -221 -415 6 -103 33 -180 88 -248 77
-98 204 -157 249 -117 19 17 20 32 20 392 0 239 -4 381 -10 394 -15 27 -65 25
-126 -6z"/>
<path d="M3103 3209 c-18 -18 -19 -779 -1 -797 36 -36 148 10 227 93 158 167
159 432 3 606 -71 79 -196 133 -229 98z"/>
<path d="M1364 3073 c-101 -67 -144 -138 -144 -239 0 -95 63 -197 150 -244 21
-11 21 -11 7 17 -27 52 -40 137 -35 239 4 83 9 111 36 173 17 41 30 76 29 78
-2 1 -21 -9 -43 -24z"/>
<path d="M3470 3077 c0 -7 4 -17 9 -22 5 -6 19 -37 31 -70 33 -85 33 -255 2
-335 -25 -63 -25 -60 -14 -60 16 0 94 74 118 112 46 72 49 167 9 253 -26 57
-155 158 -155 122z"/>
<path d="M1910 3010 c-19 -19 -20 -33 -20 -347 0 -243 4 -334 13 -353 16 -32
70 -40 98 -14 18 16 19 35 19 354 0 325 -1 337 -20 358 -26 27 -64 28 -90 2z"/>
<path d="M2866 3008 c-24 -34 -24 -672 0 -706 20 -29 67 -29 94 0 19 21 20 34
20 346 0 320 -3 354 -34 374 -23 16 -65 8 -80 -14z"/>
<path d="M1395 1988 c-97 -35 -177 -127 -199 -230 -6 -25 -10 -27 -69 -30
l-62 -3 0 -75 0 -75 63 -3 62 -3 0 -252 c0 -139 4 -258 9 -265 5 -9 30 -12 87
-10 l79 3 3 263 2 262 65 0 c53 0 66 3 75 19 14 28 13 116 -3 129 -7 6 -41 12
-75 14 l-61 3 12 25 c16 32 73 70 105 70 13 0 51 -12 84 -27 47 -21 65 -24 86
-17 26 9 27 13 30 82 l3 73 -65 29 c-53 24 -79 30 -133 29 -38 0 -81 -5 -98
-11z"/>
<path d="M3020 1990 c0 -5 0 -215 0 -465 0 -250 0 -462 0 -470 0 -12 16 -15
85 -15 l85 0 -2 478 -3 477 -82 3 c-53 2 -83 -1 -83 -8z"/>
<path d="M3361 1984 c-13 -9 -29 -30 -36 -47 -37 -88 79 -167 149 -102 79 73
-25 211 -113 149z"/>
<path d="M3647 1873 c-4 -3 -7 -37 -7 -74 l0 -68 -37 -3 -38 -3 -3 -63 c-3
-73 7 -92 49 -92 l29 0 0 -158 c0 -200 12 -248 79 -312 27 -26 63 -51 87 -58
50 -15 156 -16 207 -1 l37 10 0 88 c0 48 -2 90 -6 93 -3 3 -26 -1 -51 -8 -72
-22 -120 -18 -148 11 -24 24 -25 28 -25 180 l0 155 74 0 c84 0 86 2 86 80 0
78 -2 80 -86 80 l-74 0 0 75 0 75 -83 0 c-46 0 -87 -3 -90 -7z"/>
<path d="M1805 1736 c-27 -7 -68 -22 -90 -34 -206 -111 -249 -396 -85 -562 82
-84 133 -105 250 -105 89 0 99 2 156 33 34 18 76 48 93 66 l31 32 -62 47 c-35
26 -70 47 -79 47 -8 0 -30 -11 -49 -25 -44 -32 -92 -41 -142 -24 -39 12 -98
71 -98 96 0 10 56 13 243 15 l242 3 3 45 c4 51 -13 141 -35 184 -25 48 -104
126 -153 151 -42 21 -135 46 -163 44 -7 0 -34 -6 -62 -13z m134 -181 c30 -15
81 -70 81 -86 0 -5 -63 -9 -145 -9 -154 0 -162 3 -127 47 46 57 132 79 191 48z"/>
<path d="M2535 1736 c-108 -27 -194 -96 -243 -195 -24 -49 -27 -68 -27 -151 0
-88 3 -101 33 -162 37 -75 100 -138 172 -172 35 -16 65 -21 135 -21 78 0 98 4
150 28 62 29 125 81 125 104 0 13 -111 93 -130 93 -6 0 -27 -11 -48 -24 -20
-14 -50 -28 -65 -32 -44 -10 -113 14 -147 53 -56 64 -58 63 220 63 l250 0 0
45 c0 185 -108 330 -277 371 -69 16 -83 16 -148 0z m139 -180 c18 -7 42 -26
54 -41 41 -52 36 -55 -123 -55 -80 0 -145 3 -145 6 0 3 7 18 17 34 35 60 125
86 197 56z"/>
<path d="M3356 1709 l-26 -20 0 -325 0 -325 83 3 82 3 3 313 2 313 -29 30
c-35 35 -77 38 -115 8z"/>
</g>
</svg>
